<svg xmlns="http://www.w3.org/2000/svg" width="243.11" height="243.11">
    <g id="layer1" transform="translate(0,0)">
        <path transform="matrix(0,-1,1,0,52,-684)"
              style="fill:#00BF63;fill-opacity:1;stroke:none"
              d="m -741.42858,159.50504 c -3.5867,2.56192 -5.43668,17.97342 -9.38,19.94273 -3.94331,1.9693 -17.37507,-5.81045 -21.5779,-4.48227 -4.20283,1.32819 -10.72468,15.41372 -15.08354,16.06809 -4.35887,0.65436 -14.72915,-10.89526 -19.13671,-10.93083 -4.40756,-0.0356 -14.96288,11.34521 -19.31062,10.62058 -4.34773,-0.72462 -10.64143,-14.91356 -14.82228,-16.3094 -4.18085,-1.39583 -17.73641,6.16615 -21.64743,4.13347 -3.91101,-2.03268 -5.51205,-17.47202 -9.05694,-20.0915 -3.54489,-2.61947 -18.77377,0.38351 -21.86524,-2.75826 -3.09147,-3.14176 0.15688,-18.3202 -2.40505,-21.9069 -2.56193,-3.58669 -17.97343,-5.43668 -19.94273,-9.37999 -1.9693,-3.94331 5.81045,-17.37507 4.48227,-21.5779 -1.32819,-4.202832 -15.41372,-10.724686 -16.06809,-15.083547 -0.65436,-4.358861 10.89526,-14.729146 10.93083,-19.136707 0.0356,-4.407562 -11.34521,-14.962883 -10.62059,-19.310617 0.72463,-4.347733 14.91357,-10.641429 16.3094,-14.822279 1.39584,-4.18085 -6.16614,-17.736408 -4.13346,-21.647428 2.03268,-3.9110193 17.47202,-5.5120565 20.09149,-9.0569433 2.61948,-3.54488763 -0.3835,-18.7737707 2.75827,-21.8652397 3.14176,-3.091467 18.3202,0.156875 21.90689,-2.405051 3.5867,-2.561926 5.43669,-17.973426 9.38,-19.942728 3.94331,-1.969302 17.37507,5.810451 21.5779,4.482265 4.20283,-1.328187 10.72468,-15.413718 15.08355,-16.068085 4.35886,-0.654367 14.72914,10.89526 19.1367,10.930825 4.40756,0.03557 14.96289,-11.345206 19.31062,-10.620584 4.34773,0.724622 10.64143,14.913564 14.82228,16.3094 4.18085,1.395837 17.73641,-6.166147 21.64743,-4.133467 3.91102,2.03268 5.51205,17.472025 9.05694,20.091497 3.54489,2.619473 18.77377,-0.383503 21.86524,2.758263 3.09147,3.141765 -0.15688,18.3202017 2.40505,21.9068985 2.56193,3.5866976 17.97343,5.4366815 19.94273,9.3799945 1.9693,3.943312 -5.81045,17.37507 -4.48227,21.5779 1.32819,4.202831 15.41372,10.724685 16.06809,15.083547 0.65437,4.35886 -10.89526,14.729145 -10.93083,19.136706 -0.0356,4.407562 11.34521,14.962883 10.62059,19.310617 -0.72462,4.347733 -14.91357,10.641433 -16.3094,14.822283 -1.39584,4.18085 6.16615,17.7364 4.13346,21.64742 -2.03268,3.91102 -17.47202,5.51206 -20.09149,9.05695 -2.61948,3.54488 0.3835,18.77377 -2.75827,21.86524 -3.14176,3.09146 -18.3202,-0.15688 -21.90689,2.40505 z"/>
    </g>
</svg>