<?xml version="1.0" encoding="UTF-8" standalone="no" ?>
<!DOCTYPE svg PUBLIC "-//W3C//DTD SVG 1.1//EN" "http://www.w3.org/Graphics/SVG/1.1/DTD/svg11.dtd">
<svg xmlns="http://www.w3.org/2000/svg" xmlns:xlink="http://www.w3.org/1999/xlink" version="1.1" width="400"
     height="400" viewBox="0 0 400 400" xml:space="preserve">
<desc>Created with Fabric.js 5.3.0</desc>
    <defs>
</defs>
    <g transform="matrix(1 0 0 1 222.1886681671 147.519487428)" id="HJCDj2b54nFEHNzNki2wz">
<path style="stroke: rgb(0,0,0); stroke-width: 0; stroke-dasharray: none; stroke-linecap: butt; stroke-dashoffset: 0; stroke-linejoin: miter; stroke-miterlimit: 4; fill: rgb(244,55,49); fill-rule: nonzero; opacity: 1;"
      transform=" translate(0, 0.000005)" d="M -22.18867 52.48051 L 22.18867 52.48051 L -22.18867 -52.48051999999999 z"
      stroke-linecap="round"/>
</g>
    <g transform="matrix(1 0 0 1 243.1314476819 147.5703744904)" id="ZzqdDKOsgj3UDNgKpobar">
<path style="stroke: rgb(0,0,0); stroke-width: 0; stroke-dasharray: none; stroke-linecap: butt; stroke-dashoffset: 0; stroke-linejoin: miter; stroke-miterlimit: 4; fill: rgb(83,113,255); fill-rule: nonzero; opacity: 1;"
      transform=" translate(0, -0.000005)" d="M 1.26055 52.42963 L 43.13145 52.42963 L -43.13145 -52.42962 z"
      stroke-linecap="round"/>
</g>
    <g transform="matrix(1 0 0 -1 222.1886704852 252.480515)" id="vFz7bT3O5-lQHs0Ys7A3k">
<path style="stroke: rgb(0,0,0); stroke-width: 0; stroke-dasharray: none; stroke-linecap: butt; stroke-dashoffset: 0; stroke-linejoin: miter; stroke-miterlimit: 4; fill: rgb(183,6,0); fill-rule: nonzero; opacity: 1;"
      transform=" translate(0, 0.000005)" d="M -22.18867 52.48051 L 22.18867 52.48051 L -22.18867 -52.48051999999999 z"
      stroke-linecap="round"/>
</g>
    <g transform="matrix(1 0 0 -1 243.13145 252.5314020624)" id="kuBjJn-e12TfqIKlS82au">
<path style="stroke: rgb(0,0,0); stroke-width: 0; stroke-dasharray: none; stroke-linecap: butt; stroke-dashoffset: 0; stroke-linejoin: miter; stroke-miterlimit: 4; fill: rgb(0,37,206); fill-rule: nonzero; opacity: 1;"
      transform=" translate(0, -0.000005)" d="M 1.26055 52.42963 L 43.13145 52.42963 L -43.13145 -52.42962 z"
      stroke-linecap="round"/>
</g>
    <g transform="matrix(-1 0 0 1 177.81133 147.519485)" id="SmuCwRbJ9CyQL3yqcYGc6">
<path style="stroke: rgb(0,0,0); stroke-width: 0; stroke-dasharray: none; stroke-linecap: butt; stroke-dashoffset: 0; stroke-linejoin: miter; stroke-miterlimit: 4; fill: rgb(255,143,78); fill-rule: nonzero; opacity: 1;"
      transform=" translate(0, 0.000005)" d="M -22.18867 52.48051 L 22.18867 52.48051 L -22.18867 -52.48051999999999 z"
      stroke-linecap="round"/>
</g>
    <g transform="matrix(-1 0 0 1 156.86855 147.570375)" id="QVqDq_pzt6InOWqqSRLKH">
<path style="stroke: rgb(0,0,0); stroke-width: 0; stroke-dasharray: none; stroke-linecap: butt; stroke-dashoffset: 0; stroke-linejoin: miter; stroke-miterlimit: 4; fill: rgb(255,222,90); fill-rule: nonzero; opacity: 1;"
      transform=" translate(0, -0.000005)" d="M 1.26055 52.42963 L 43.13145 52.42963 L -43.13145 -52.42962 z"
      stroke-linecap="round"/>
</g>
    <g transform="matrix(-1 0 0 -1 177.81133 252.480515)" id="nKe9jaUdbJmpFXXX3nKOK">
<path style="stroke: rgb(0,0,0); stroke-width: 0; stroke-dasharray: none; stroke-linecap: butt; stroke-dashoffset: 0; stroke-linejoin: miter; stroke-miterlimit: 4; fill: rgb(212,77,1); fill-rule: nonzero; opacity: 1;"
      transform=" translate(0, 0.000005)" d="M -22.18867 52.48051 L 22.18867 52.48051 L -22.18867 -52.48051999999999 z"
      stroke-linecap="round"/>
</g>
    <g transform="matrix(-1 0 0 -1 156.86855 252.429625)" id="w0m7FoR6YMmY9c8IMjM22">
<path style="stroke: rgb(0,0,0); stroke-width: 0; stroke-dasharray: none; stroke-linecap: butt; stroke-dashoffset: 0; stroke-linejoin: miter; stroke-miterlimit: 4; fill: rgb(230,185,0); fill-rule: nonzero; opacity: 1;"
      transform=" translate(0, -0.000005)" d="M 1.26055 52.42963 L 43.13145 52.42963 L -43.13145 -52.42962 z"
      stroke-linecap="round"/>
</g>
</svg>