<svg version="1.1" xmlns="http://www.w3.org/2000/svg" viewBox="0 0 2120 1840" width="4240" height="3680">
  <!-- svg-source:excalidraw -->
  
  <defs>
    <style class="style-fonts">
      @font-face {
        font-family: "Virgil";
        src: url("https://excalidraw.com/Virgil.woff2");
      }
      @font-face {
        font-family: "Cascadia";
        src: url("https://excalidraw.com/Cascadia.woff2");
      }
      @font-face {
        font-family: "Assistant";
        src: url("https://excalidraw.com/Assistant-Regular.woff2");
      }
    </style>
    
  </defs>
  <rect x="0" y="0" width="2120" height="1840" fill="#ffffff"></rect><g stroke-linecap="round" transform="translate(1550 170) rotate(0 140 60)"><path d="M7.33 7.7 C7.33 7.7, 7.33 7.7, 7.33 7.7 M7.33 7.7 C7.33 7.7, 7.33 7.7, 7.33 7.7 M0.38 40.08 C7.34 32.07, 14.3 24.07, 34.49 0.83 M0.38 40.08 C10.76 28.14, 21.14 16.2, 34.49 0.83 M0.65 64.16 C18.84 43.23, 37.04 22.29, 55.75 0.77 M0.65 64.16 C21.25 40.46, 41.86 16.75, 55.75 0.77 M0.91 88.24 C26.44 58.87, 51.98 29.5, 77.01 0.7 M0.91 88.24 C18.01 68.58, 35.1 48.92, 77.01 0.7 M4.46 108.55 C40.62 66.95, 76.79 25.35, 98.27 0.63 M4.46 108.55 C29.06 80.25, 53.67 51.94, 98.27 0.63 M17.19 118.29 C39.95 92.11, 62.71 65.93, 119.53 0.56 M17.19 118.29 C54.49 75.39, 91.79 32.48, 119.53 0.56 M36.48 120.49 C67.08 85.29, 97.68 50.09, 140.79 0.49 M36.48 120.49 C68.03 84.2, 99.58 47.91, 140.79 0.49 M57.74 120.42 C97.19 75.04, 136.64 29.65, 162.06 0.42 M57.74 120.42 C85.18 88.86, 112.61 57.3, 162.06 0.42 M79 120.35 C112.18 82.19, 145.35 44.03, 183.32 0.35 M79 120.35 C107.21 87.91, 135.41 55.46, 183.32 0.35 M100.26 120.28 C125.6 91.13, 150.95 61.97, 204.58 0.28 M100.26 120.28 C132.39 83.32, 164.52 46.37, 204.58 0.28 M121.52 120.21 C152.66 84.39, 183.8 48.57, 225.18 0.97 M121.52 120.21 C156.81 79.61, 192.11 39.02, 225.18 0.97 M142.78 120.14 C172.15 86.36, 201.51 52.58, 246.44 0.9 M142.78 120.14 C167.19 92.07, 191.6 63.99, 246.44 0.9 M164.04 120.07 C200.44 78.2, 236.84 36.33, 265.73 3.09 M164.04 120.07 C203.25 74.97, 242.45 29.87, 265.73 3.09 M185.3 120.01 C212.16 89.11, 239.02 58.22, 277.15 14.35 M185.3 120.01 C206.43 95.7, 227.55 71.4, 277.15 14.35 M206.56 119.94 C234.82 87.43, 263.07 54.93, 280.04 35.41 M206.56 119.94 C226.91 96.53, 247.25 73.13, 280.04 35.41 M227.82 119.87 C243.05 102.36, 258.27 84.84, 280.31 59.49 M227.82 119.87 C239.61 106.31, 251.4 92.75, 280.31 59.49 M249.08 119.8 C260.13 107.09, 271.17 94.39, 280.57 83.57 M249.08 119.8 C261.18 105.88, 273.28 91.97, 280.57 83.57" stroke="#b2f2bb" stroke-width="2" fill="none"></path><path d="M30 0 C110.44 0, 190.88 0, 250 0 M30 0 C82.29 0, 134.58 0, 250 0 M250 0 C270 0, 280 10, 280 30 M250 0 C270 0, 280 10, 280 30 M280 30 C280 43.59, 280 57.18, 280 90 M280 30 C280 52.35, 280 74.7, 280 90 M280 90 C280 110, 270 120, 250 120 M280 90 C280 110, 270 120, 250 120 M250 120 C188.69 120, 127.38 120, 30 120 M250 120 C186.25 120, 122.5 120, 30 120 M30 120 C10 120, 0 110, 0 90 M30 120 C10 120, 0 110, 0 90 M0 90 C0 76.65, 0 63.3, 0 30 M0 90 C0 68.19, 0 46.38, 0 30 M0 30 C0 10, 10 0, 30 0 M0 30 C0 10, 10 0, 30 0" stroke="#2f9e44" stroke-width="4" fill="none"></path></g><g transform="translate(10 10) rotate(0 63.28125 21.599999999999994)"><text x="0" y="34.762499999999996" font-family="Cascadia, Segoe UI Emoji" font-size="36px" fill="#1e1e1e" text-anchor="start" style="white-space: pre;" direction="ltr" dominant-baseline="alphabetic">DeDust</text></g><g transform="translate(10 130) rotate(0 70.3125 12)"><text x="0" y="19.3125" font-family="Cascadia, Segoe UI Emoji" font-size="20px" fill="#1e1e1e" text-anchor="start" style="white-space: pre;" direction="ltr" dominant-baseline="alphabetic">TON &gt; jetton</text></g><g stroke-linecap="round" transform="translate(10 211) rotate(0 40 20)"><path d="M0 0 L80 0 L80 40 L0 40" stroke="none" stroke-width="0" fill="#b2f2bb"></path><path d="M0 0 C19.89 0, 39.79 0, 80 0 M0 0 C18.91 0, 37.81 0, 80 0 M80 0 C80 15.55, 80 31.11, 80 40 M80 0 C80 10.62, 80 21.25, 80 40 M80 40 C57.73 40, 35.45 40, 0 40 M80 40 C54.45 40, 28.91 40, 0 40 M0 40 C0 24.2, 0 8.39, 0 0 M0 40 C0 30.22, 0 20.44, 0 0" stroke="#1e1e1e" stroke-width="1" fill="none"></path></g><g transform="translate(26.5625 219) rotate(0 23.4375 12)"><text x="23.4375" y="19.3125" font-family="Cascadia, Segoe UI Emoji" font-size="20px" fill="#1e1e1e" text-anchor="middle" style="white-space: pre;" direction="ltr" dominant-baseline="alphabetic">User</text></g><g stroke-linecap="round" transform="translate(450 190) rotate(0 70 41)"><path d="M0 0 L140 0 L140 82 L0 82" stroke="none" stroke-width="0" fill="#a5d8ff"></path><path d="M0 0 C55.94 0, 111.88 0, 140 0 M0 0 C54.52 0, 109.05 0, 140 0 M140 0 C140 21.19, 140 42.38, 140 82 M140 0 C140 21.44, 140 42.88, 140 82 M140 82 C108.16 82, 76.32 82, 0 82 M140 82 C92.74 82, 45.48 82, 0 82 M0 82 C0 59.88, 0 37.75, 0 0 M0 82 C0 50.52, 0 19.04, 0 0" stroke="#1e1e1e" stroke-width="1" fill="none"></path></g><g transform="translate(467.265625 207) rotate(0 52.734375 24)"><text x="52.734375" y="19.3125" font-family="Cascadia, Segoe UI Emoji" font-size="20px" fill="#1e1e1e" text-anchor="middle" style="white-space: pre;" direction="ltr" dominant-baseline="alphabetic">DeDust </text><text x="52.734375" y="43.3125" font-family="Cascadia, Segoe UI Emoji" font-size="20px" fill="#1e1e1e" text-anchor="middle" style="white-space: pre;" direction="ltr" dominant-baseline="alphabetic">TON vault</text></g><g stroke-linecap="round" transform="translate(650 190) rotate(0 50 40)"><path d="M0 0 L100 0 L100 80 L0 80" stroke="none" stroke-width="0" fill="#a5d8ff"></path><path d="M0 0 C32.81 0, 65.62 0, 100 0 M0 0 C36.84 0, 73.67 0, 100 0 M100 0 C100 21.12, 100 42.24, 100 80 M100 0 C100 17.92, 100 35.84, 100 80 M100 80 C64.95 80, 29.91 80, 0 80 M100 80 C79.44 80, 58.87 80, 0 80 M0 80 C0 57.66, 0 35.32, 0 0 M0 80 C0 48.43, 0 16.87, 0 0" stroke="#1e1e1e" stroke-width="1" fill="none"></path></g><g transform="translate(658.984375 206) rotate(0 41.015625 24)"><text x="41.015625" y="19.3125" font-family="Cascadia, Segoe UI Emoji" font-size="20px" fill="#1e1e1e" text-anchor="middle" style="white-space: pre;" direction="ltr" dominant-baseline="alphabetic">DeDust </text><text x="41.015625" y="43.3125" font-family="Cascadia, Segoe UI Emoji" font-size="20px" fill="#1e1e1e" text-anchor="middle" style="white-space: pre;" direction="ltr" dominant-baseline="alphabetic">pool</text></g><g stroke-linecap="round" transform="translate(810 190) rotate(0 80 41)"><path d="M0 0 L160 0 L160 82 L0 82" stroke="none" stroke-width="0" fill="#a5d8ff"></path><path d="M0 0 C51.72 0, 103.44 0, 160 0 M0 0 C44.18 0, 88.36 0, 160 0 M160 0 C160 27.47, 160 54.94, 160 82 M160 0 C160 28.12, 160 56.24, 160 82 M160 82 C127.72 82, 95.43 82, 0 82 M160 82 C122.73 82, 85.46 82, 0 82 M0 82 C0 62.41, 0 42.81, 0 0 M0 82 C0 61.06, 0 40.12, 0 0" stroke="#1e1e1e" stroke-width="1" fill="none"></path></g><g transform="translate(819.6875 207) rotate(0 70.3125 24)"><text x="70.3125" y="19.3125" font-family="Cascadia, Segoe UI Emoji" font-size="20px" fill="#1e1e1e" text-anchor="middle" style="white-space: pre;" direction="ltr" dominant-baseline="alphabetic">DeDust </text><text x="70.3125" y="43.3125" font-family="Cascadia, Segoe UI Emoji" font-size="20px" fill="#1e1e1e" text-anchor="middle" style="white-space: pre;" direction="ltr" dominant-baseline="alphabetic">jetton vault</text></g><g stroke-linecap="round" transform="translate(1030 190) rotate(0 90 41)"><path d="M0 0 L180 0 L180 82 L0 82" stroke="none" stroke-width="0" fill="#a5d8ff"></path><path d="M0 0 C70.29 0, 140.58 0, 180 0 M0 0 C40.99 0, 81.98 0, 180 0 M180 0 C180 29.35, 180 58.7, 180 82 M180 0 C180 20, 180 39.99, 180 82 M180 82 C125.3 82, 70.6 82, 0 82 M180 82 C137.4 82, 94.79 82, 0 82 M0 82 C0 57.79, 0 33.57, 0 0 M0 82 C0 60.23, 0 38.47, 0 0" stroke="#1e1e1e" stroke-width="1" fill="none"></path></g><g transform="translate(1043.828125 207) rotate(0 76.171875 24)"><text x="76.171875" y="19.3125" font-family="Cascadia, Segoe UI Emoji" font-size="20px" fill="#1e1e1e" text-anchor="middle" style="white-space: pre;" direction="ltr" dominant-baseline="alphabetic">DeDust </text><text x="76.171875" y="43.3125" font-family="Cascadia, Segoe UI Emoji" font-size="20px" fill="#1e1e1e" text-anchor="middle" style="white-space: pre;" direction="ltr" dominant-baseline="alphabetic">jetton wallet</text></g><g stroke-linecap="round" transform="translate(1270 190) rotate(0 90 41)"><path d="M0 0 L180 0 L180 82 L0 82" stroke="none" stroke-width="0" fill="#b2f2bb"></path><path d="M0 0 C65.87 0, 131.75 0, 180 0 M0 0 C52.75 0, 105.5 0, 180 0 M180 0 C180 24.94, 180 49.89, 180 82 M180 0 C180 31.3, 180 62.61, 180 82 M180 82 C130.41 82, 80.82 82, 0 82 M180 82 C117.14 82, 54.28 82, 0 82 M0 82 C0 61.61, 0 41.21, 0 0 M0 82 C0 53.96, 0 25.93, 0 0" stroke="#1e1e1e" stroke-width="1" fill="none"></path></g><g transform="translate(1283.828125 207) rotate(0 76.171875 24)"><text x="76.171875" y="19.3125" font-family="Cascadia, Segoe UI Emoji" font-size="20px" fill="#1e1e1e" text-anchor="middle" style="white-space: pre;" direction="ltr" dominant-baseline="alphabetic">User </text><text x="76.171875" y="43.3125" font-family="Cascadia, Segoe UI Emoji" font-size="20px" fill="#1e1e1e" text-anchor="middle" style="white-space: pre;" direction="ltr" dominant-baseline="alphabetic">jetton wallet</text></g><g stroke-linecap="round" transform="translate(1930 210) rotate(0 40 20)"><path d="M0 0 L80 0 L80 40 L0 40" stroke="none" stroke-width="0" fill="#b2f2bb"></path><path d="M0 0 C26.38 0, 52.76 0, 80 0 M0 0 C17.2 0, 34.41 0, 80 0 M80 0 C80 8.13, 80 16.26, 80 40 M80 0 C80 8.48, 80 16.96, 80 40 M80 40 C49.32 40, 18.63 40, 0 40 M80 40 C56.88 40, 33.76 40, 0 40 M0 40 C0 29.89, 0 19.79, 0 0 M0 40 C0 30.39, 0 20.78, 0 0" stroke="#1e1e1e" stroke-width="1" fill="none"></path></g><g transform="translate(1946.5625 218) rotate(0 23.4375 12)"><text x="23.4375" y="19.3125" font-family="Cascadia, Segoe UI Emoji" font-size="20px" fill="#1e1e1e" text-anchor="middle" style="white-space: pre;" direction="ltr" dominant-baseline="alphabetic">User</text></g><g mask="url(#mask-XOqLMvnymvG3WB8e0YHMp)" stroke-linecap="round"><g transform="translate(91 230) rotate(0 178.5 0)"><path d="M0 0 C134.19 0, 268.38 0, 357 0 M0 0 C84.56 0, 169.12 0, 357 0" stroke="#2f9e44" stroke-width="4" fill="none"></path></g><g transform="translate(91 230) rotate(0 178.5 0)"><path d="M333.51 8.55 C342.34 5.34, 351.17 2.12, 357 0 M333.51 8.55 C339.07 6.53, 344.64 4.5, 357 0" stroke="#2f9e44" stroke-width="4" fill="none"></path></g><g transform="translate(91 230) rotate(0 178.5 0)"><path d="M333.51 -8.55 C342.34 -5.34, 351.17 -2.12, 357 0 M333.51 -8.55 C339.07 -6.53, 344.64 -4.5, 357 0" stroke="#2f9e44" stroke-width="4" fill="none"></path></g></g><mask id="mask-XOqLMvnymvG3WB8e0YHMp"><rect x="0" y="0" fill="#fff" width="548" height="330"></rect><rect x="169.890625" y="218" fill="#000" width="199.21875" height="24" opacity="1"></rect></mask><g transform="translate(169.890625 218) rotate(0 99.609375 12)"><text x="99.609375" y="19.3125" font-family="Cascadia, Segoe UI Emoji" font-size="20px" fill="#2f9e44" text-anchor="middle" style="white-space: pre;" direction="ltr" dominant-baseline="alphabetic">TON + swap params</text></g><g stroke-linecap="round"><g transform="translate(591 231.38136678351907) rotate(0 28.5 -0.690683391759535)"><path d="M0 0 C17.19 -0.42, 34.38 -0.83, 57 -1.38 M0 0 C18.94 -0.46, 37.88 -0.92, 57 -1.38" stroke="#1e1e1e" stroke-width="1" fill="none"></path></g><g transform="translate(591 231.38136678351907) rotate(0 28.5 -0.690683391759535)"><path d="M33.72 7.74 C40.74 4.99, 47.76 2.24, 57 -1.38 M33.72 7.74 C41.46 4.71, 49.19 1.68, 57 -1.38" stroke="#1e1e1e" stroke-width="1" fill="none"></path></g><g transform="translate(591 231.38136678351907) rotate(0 28.5 -0.690683391759535)"><path d="M33.31 -9.36 C40.45 -6.95, 47.6 -4.55, 57 -1.38 M33.31 -9.36 C41.18 -6.71, 49.05 -4.06, 57 -1.38" stroke="#1e1e1e" stroke-width="1" fill="none"></path></g></g><mask></mask><g stroke-linecap="round"><g transform="translate(751 230) rotate(0 29 0)"><path d="M0 0 C14.09 0, 28.18 0, 58 0 M0 0 C22.09 0, 44.19 0, 58 0" stroke="#1e1e1e" stroke-width="1" fill="none"></path></g><g transform="translate(751 230) rotate(0 29 0)"><path d="M34.51 8.55 C40.21 6.47, 45.92 4.4, 58 0 M34.51 8.55 C43.46 5.29, 52.4 2.04, 58 0" stroke="#1e1e1e" stroke-width="1" fill="none"></path></g><g transform="translate(751 230) rotate(0 29 0)"><path d="M34.51 -8.55 C40.21 -6.47, 45.92 -4.4, 58 0 M34.51 -8.55 C43.46 -5.29, 52.4 -2.04, 58 0" stroke="#1e1e1e" stroke-width="1" fill="none"></path></g></g><mask></mask><g stroke-linecap="round"><g transform="translate(971 230) rotate(0 29 0)"><path d="M0 0 C21.37 0, 42.73 0, 58 0 M0 0 C19.88 0, 39.76 0, 58 0" stroke="#1e1e1e" stroke-width="1" fill="none"></path></g><g transform="translate(971 230) rotate(0 29 0)"><path d="M34.51 8.55 C43.16 5.4, 51.82 2.25, 58 0 M34.51 8.55 C42.56 5.62, 50.61 2.69, 58 0" stroke="#1e1e1e" stroke-width="1" fill="none"></path></g><g transform="translate(971 230) rotate(0 29 0)"><path d="M34.51 -8.55 C43.16 -5.4, 51.82 -2.25, 58 0 M34.51 -8.55 C42.56 -5.62, 50.61 -2.69, 58 0" stroke="#1e1e1e" stroke-width="1" fill="none"></path></g></g><mask></mask><g stroke-linecap="round"><g transform="translate(1211 230) rotate(0 29 0)"><path d="M0 0 C13.92 0, 27.83 0, 58 0 M0 0 C18.83 0, 37.67 0, 58 0" stroke="#1e1e1e" stroke-width="1" fill="none"></path></g><g transform="translate(1211 230) rotate(0 29 0)"><path d="M34.51 8.55 C40.14 6.5, 45.78 4.45, 58 0 M34.51 8.55 C42.14 5.77, 49.77 3, 58 0" stroke="#1e1e1e" stroke-width="1" fill="none"></path></g><g transform="translate(1211 230) rotate(0 29 0)"><path d="M34.51 -8.55 C40.14 -6.5, 45.78 -4.45, 58 0 M34.51 -8.55 C42.14 -5.77, 49.77 -3, 58 0" stroke="#1e1e1e" stroke-width="1" fill="none"></path></g></g><mask></mask><g mask="url(#mask-1zN6C9Rla_Jx400N1_Bz9)" stroke-linecap="round"><g transform="translate(1451.0000000000007 229.84726996562483) rotate(0 238.99999999999966 -0.3916779918458815)"><path d="M0 0 C112.65 -0.18, 225.29 -0.37, 478 -0.78 M0 0 C142.39 -0.23, 284.77 -0.47, 478 -0.78" stroke="#1e1e1e" stroke-width="1" fill="none"></path></g><g transform="translate(1451.0000000000007 229.84726996562483) rotate(0 238.99999999999966 -0.3916779918458815)"><path d="M454.52 7.81 C460.05 5.78, 465.59 3.76, 478 -0.78 M454.52 7.81 C461.52 5.25, 468.51 2.69, 478 -0.78" stroke="#1e1e1e" stroke-width="1" fill="none"></path></g><g transform="translate(1451.0000000000007 229.84726996562483) rotate(0 238.99999999999966 -0.3916779918458815)"><path d="M454.49 -9.3 C460.03 -7.29, 465.57 -5.28, 478 -0.78 M454.49 -9.3 C461.5 -6.76, 468.5 -4.22, 478 -0.78" stroke="#1e1e1e" stroke-width="1" fill="none"></path></g></g><mask id="mask-1zN6C9Rla_Jx400N1_Bz9"><rect x="0" y="0" fill="#fff" width="2029" height="330.6306259493166"></rect><rect x="1566.9531250000002" y="217.45559197377895" fill="#000" width="246.09375" height="24" opacity="1"></rect></mask><g transform="translate(1566.9531250000007 217.45559197377895) rotate(0 123.04687499999989 12)"><text x="123.046875" y="19.3125" font-family="Cascadia, Segoe UI Emoji" font-size="20px" fill="#1e1e1e" text-anchor="middle" style="white-space: pre;" direction="ltr" dominant-baseline="alphabetic">JettonNotify + amount</text></g><g transform="translate(10 330) rotate(0 70.3125 12)"><text x="0" y="19.3125" font-family="Cascadia, Segoe UI Emoji" font-size="20px" fill="#1e1e1e" text-anchor="start" style="white-space: pre;" direction="ltr" dominant-baseline="alphabetic">jetton &gt; TON</text></g><g stroke-linecap="round" transform="translate(10 411) rotate(0 40 20)"><path d="M0 0 L80 0 L80 40 L0 40" stroke="none" stroke-width="0" fill="#b2f2bb"></path><path d="M0 0 C17.41 0, 34.83 0, 80 0 M0 0 C29.31 0, 58.61 0, 80 0 M80 0 C80 15.92, 80 31.85, 80 40 M80 0 C80 14.25, 80 28.49, 80 40 M80 40 C55.89 40, 31.78 40, 0 40 M80 40 C48.12 40, 16.24 40, 0 40 M0 40 C0 25.78, 0 11.55, 0 0 M0 40 C0 25.46, 0 10.93, 0 0" stroke="#1e1e1e" stroke-width="1" fill="none"></path></g><g transform="translate(26.5625 419) rotate(0 23.4375 12)"><text x="23.4375" y="19.3125" font-family="Cascadia, Segoe UI Emoji" font-size="20px" fill="#1e1e1e" text-anchor="middle" style="white-space: pre;" direction="ltr" dominant-baseline="alphabetic">User</text></g><g stroke-linecap="round" transform="translate(1310 390) rotate(0 70 41)"><path d="M0 0 L140 0 L140 82 L0 82" stroke="none" stroke-width="0" fill="#a5d8ff"></path><path d="M0 0 C28.57 0, 57.13 0, 140 0 M0 0 C51.34 0, 102.69 0, 140 0 M140 0 C140 23.32, 140 46.64, 140 82 M140 0 C140 24.72, 140 49.44, 140 82 M140 82 C89.05 82, 38.11 82, 0 82 M140 82 C99.74 82, 59.49 82, 0 82 M0 82 C0 49.71, 0 17.41, 0 0 M0 82 C0 53.31, 0 24.61, 0 0" stroke="#1e1e1e" stroke-width="1" fill="none"></path></g><g transform="translate(1327.265625 407) rotate(0 52.734375 24)"><text x="52.734375" y="19.3125" font-family="Cascadia, Segoe UI Emoji" font-size="20px" fill="#1e1e1e" text-anchor="middle" style="white-space: pre;" direction="ltr" dominant-baseline="alphabetic">DeDust </text><text x="52.734375" y="43.3125" font-family="Cascadia, Segoe UI Emoji" font-size="20px" fill="#1e1e1e" text-anchor="middle" style="white-space: pre;" direction="ltr" dominant-baseline="alphabetic">TON vault</text></g><g stroke-linecap="round" transform="translate(1150 390) rotate(0 50 40)"><path d="M0 0 L100 0 L100 80 L0 80" stroke="none" stroke-width="0" fill="#a5d8ff"></path><path d="M0 0 C36.96 0, 73.91 0, 100 0 M0 0 C24.7 0, 49.4 0, 100 0 M100 0 C100 24.68, 100 49.37, 100 80 M100 0 C100 21.04, 100 42.08, 100 80 M100 80 C73.91 80, 47.83 80, 0 80 M100 80 C71.49 80, 42.98 80, 0 80 M0 80 C0 62.92, 0 45.84, 0 0 M0 80 C0 49.55, 0 19.11, 0 0" stroke="#1e1e1e" stroke-width="1" fill="none"></path></g><g transform="translate(1158.984375 406) rotate(0 41.015625 24)"><text x="41.015625" y="19.3125" font-family="Cascadia, Segoe UI Emoji" font-size="20px" fill="#1e1e1e" text-anchor="middle" style="white-space: pre;" direction="ltr" dominant-baseline="alphabetic">DeDust </text><text x="41.015625" y="43.3125" font-family="Cascadia, Segoe UI Emoji" font-size="20px" fill="#1e1e1e" text-anchor="middle" style="white-space: pre;" direction="ltr" dominant-baseline="alphabetic">pool</text></g><g stroke-linecap="round" transform="translate(930 390) rotate(0 80 41)"><path d="M0 0 L160 0 L160 82 L0 82" stroke="none" stroke-width="0" fill="#a5d8ff"></path><path d="M0 0 C61.64 0, 123.29 0, 160 0 M0 0 C44.82 0, 89.64 0, 160 0 M160 0 C160 20.26, 160 40.52, 160 82 M160 0 C160 26.31, 160 52.63, 160 82 M160 82 C120.12 82, 80.23 82, 0 82 M160 82 C111.47 82, 62.93 82, 0 82 M0 82 C0 55.18, 0 28.37, 0 0 M0 82 C0 63.59, 0 45.17, 0 0" stroke="#1e1e1e" stroke-width="1" fill="none"></path></g><g transform="translate(939.6875 407) rotate(0 70.3125 24)"><text x="70.3125" y="19.3125" font-family="Cascadia, Segoe UI Emoji" font-size="20px" fill="#1e1e1e" text-anchor="middle" style="white-space: pre;" direction="ltr" dominant-baseline="alphabetic">DeDust </text><text x="70.3125" y="43.3125" font-family="Cascadia, Segoe UI Emoji" font-size="20px" fill="#1e1e1e" text-anchor="middle" style="white-space: pre;" direction="ltr" dominant-baseline="alphabetic">jetton vault</text></g><g stroke-linecap="round" transform="translate(690 390) rotate(0 90 41)"><path d="M0 0 L180 0 L180 82 L0 82" stroke="none" stroke-width="0" fill="#a5d8ff"></path><path d="M0 0 C44.79 0, 89.58 0, 180 0 M0 0 C69.78 0, 139.57 0, 180 0 M180 0 C180 20.76, 180 41.51, 180 82 M180 0 C180 29, 180 58.01, 180 82 M180 82 C141.71 82, 103.43 82, 0 82 M180 82 C143.5 82, 107 82, 0 82 M0 82 C0 55.47, 0 28.94, 0 0 M0 82 C0 53.35, 0 24.69, 0 0" stroke="#1e1e1e" stroke-width="1" fill="none"></path></g><g transform="translate(703.828125 407) rotate(0 76.171875 24)"><text x="76.171875" y="19.3125" font-family="Cascadia, Segoe UI Emoji" font-size="20px" fill="#1e1e1e" text-anchor="middle" style="white-space: pre;" direction="ltr" dominant-baseline="alphabetic">DeDust </text><text x="76.171875" y="43.3125" font-family="Cascadia, Segoe UI Emoji" font-size="20px" fill="#1e1e1e" text-anchor="middle" style="white-space: pre;" direction="ltr" dominant-baseline="alphabetic">jetton wallet</text></g><g stroke-linecap="round" transform="translate(430 390) rotate(0 90 41)"><path d="M0 0 L180 0 L180 82 L0 82" stroke="none" stroke-width="0" fill="#b2f2bb"></path><path d="M0 0 C69.2 0, 138.4 0, 180 0 M0 0 C43.13 0, 86.26 0, 180 0 M180 0 C180 29.22, 180 58.43, 180 82 M180 0 C180 27.75, 180 55.49, 180 82 M180 82 C114.97 82, 49.94 82, 0 82 M180 82 C127.36 82, 74.71 82, 0 82 M0 82 C0 51.78, 0 21.55, 0 0 M0 82 C0 63.85, 0 45.71, 0 0" stroke="#1e1e1e" stroke-width="1" fill="none"></path></g><g transform="translate(443.828125 407) rotate(0 76.171875 24)"><text x="76.171875" y="19.3125" font-family="Cascadia, Segoe UI Emoji" font-size="20px" fill="#1e1e1e" text-anchor="middle" style="white-space: pre;" direction="ltr" dominant-baseline="alphabetic">User </text><text x="76.171875" y="43.3125" font-family="Cascadia, Segoe UI Emoji" font-size="20px" fill="#1e1e1e" text-anchor="middle" style="white-space: pre;" direction="ltr" dominant-baseline="alphabetic">jetton wallet</text></g><g stroke-linecap="round" transform="translate(1810 410) rotate(0 40 20)"><path d="M0 0 L80 0 L80 40 L0 40" stroke="none" stroke-width="0" fill="#b2f2bb"></path><path d="M0 0 C27.43 0, 54.86 0, 80 0 M0 0 C28.34 0, 56.68 0, 80 0 M80 0 C80 14.51, 80 29.03, 80 40 M80 0 C80 10.01, 80 20.03, 80 40 M80 40 C53.46 40, 26.93 40, 0 40 M80 40 C61.61 40, 43.23 40, 0 40 M0 40 C0 27.83, 0 15.65, 0 0 M0 40 C0 31.82, 0 23.63, 0 0" stroke="#1e1e1e" stroke-width="1" fill="none"></path></g><g transform="translate(1826.5625 418) rotate(0 23.4375 12)"><text x="23.4375" y="19.3125" font-family="Cascadia, Segoe UI Emoji" font-size="20px" fill="#1e1e1e" text-anchor="middle" style="white-space: pre;" direction="ltr" dominant-baseline="alphabetic">User</text></g><g mask="url(#mask-lN8kcf-_s2W7MhqRQmNms)" stroke-linecap="round"><g transform="translate(90 430) rotate(0 169 0)"><path d="M0 0 C117.32 0, 234.63 0, 338 0 M0 0 C82.36 0, 164.72 0, 338 0" stroke="#2f9e44" stroke-width="4" fill="none"></path></g><g transform="translate(90 430) rotate(0 169 0)"><path d="M314.51 8.55 C322.66 5.58, 330.82 2.61, 338 0 M314.51 8.55 C320.23 6.47, 325.96 4.38, 338 0" stroke="#2f9e44" stroke-width="4" fill="none"></path></g><g transform="translate(90 430) rotate(0 169 0)"><path d="M314.51 -8.55 C322.66 -5.58, 330.82 -2.61, 338 0 M314.51 -8.55 C320.23 -6.47, 325.96 -4.38, 338 0" stroke="#2f9e44" stroke-width="4" fill="none"></path></g></g><mask id="mask-lN8kcf-_s2W7MhqRQmNms"><rect x="0" y="0" fill="#fff" width="528" height="530"></rect><rect x="141.8125" y="418" fill="#000" width="234.375" height="24" opacity="1"></rect></mask><g transform="translate(141.8125 418) rotate(0 117.1875 12)"><text x="117.1875" y="19.3125" font-family="Cascadia, Segoe UI Emoji" font-size="20px" fill="#2f9e44" text-anchor="middle" style="white-space: pre;" direction="ltr" dominant-baseline="alphabetic">jetton + swap params</text></g><g stroke-linecap="round"><g transform="translate(611 430) rotate(0 39 0)"><path d="M0 0 C23.29 0, 46.59 0, 78 0 M0 0 C15.71 0, 31.42 0, 78 0" stroke="#1e1e1e" stroke-width="1" fill="none"></path></g><g transform="translate(611 430) rotate(0 39 0)"><path d="M54.51 8.55 C61.52 6, 68.54 3.44, 78 0 M54.51 8.55 C59.24 6.83, 63.97 5.11, 78 0" stroke="#1e1e1e" stroke-width="1" fill="none"></path></g><g transform="translate(611 430) rotate(0 39 0)"><path d="M54.51 -8.55 C61.52 -6, 68.54 -3.44, 78 0 M54.51 -8.55 C59.24 -6.83, 63.97 -5.11, 78 0" stroke="#1e1e1e" stroke-width="1" fill="none"></path></g></g><mask></mask><g stroke-linecap="round"><g transform="translate(1090 430) rotate(0 30 0)"><path d="M0 0 C22.7 0, 45.41 0, 60 0 M0 0 C23.4 0, 46.8 0, 60 0" stroke="#1e1e1e" stroke-width="1" fill="none"></path></g><g transform="translate(1090 430) rotate(0 30 0)"><path d="M36.51 8.55 C45.4 5.31, 54.29 2.08, 60 0 M36.51 8.55 C45.67 5.22, 54.83 1.88, 60 0" stroke="#1e1e1e" stroke-width="1" fill="none"></path></g><g transform="translate(1090 430) rotate(0 30 0)"><path d="M36.51 -8.55 C45.4 -5.31, 54.29 -2.08, 60 0 M36.51 -8.55 C45.67 -5.22, 54.83 -1.88, 60 0" stroke="#1e1e1e" stroke-width="1" fill="none"></path></g></g><mask></mask><g stroke-linecap="round"><g transform="translate(1250 430) rotate(0 30 0)"><path d="M0 0 C22.77 0, 45.53 0, 60 0 M0 0 C17.77 0, 35.54 0, 60 0" stroke="#1e1e1e" stroke-width="1" fill="none"></path></g><g transform="translate(1250 430) rotate(0 30 0)"><path d="M36.51 8.55 C45.42 5.31, 54.34 2.06, 60 0 M36.51 8.55 C43.47 6.02, 50.42 3.49, 60 0" stroke="#1e1e1e" stroke-width="1" fill="none"></path></g><g transform="translate(1250 430) rotate(0 30 0)"><path d="M36.51 -8.55 C45.42 -5.31, 54.34 -2.06, 60 0 M36.51 -8.55 C43.47 -6.02, 50.42 -3.49, 60 0" stroke="#1e1e1e" stroke-width="1" fill="none"></path></g></g><mask></mask><g stroke-linecap="round" transform="translate(1490 370) rotate(0 140 60)"><path d="M7.33 7.7 C7.33 7.7, 7.33 7.7, 7.33 7.7 M7.33 7.7 C7.33 7.7, 7.33 7.7, 7.33 7.7 M0.38 40.08 C10.76 28.14, 21.14 16.19, 34.49 0.83 M0.38 40.08 C13.87 24.56, 27.36 9.04, 34.49 0.83 M0.65 64.16 C14.24 48.52, 27.84 32.87, 55.75 0.77 M0.65 64.16 C20.47 41.35, 40.3 18.55, 55.75 0.77 M0.91 88.24 C24.84 60.72, 48.76 33.2, 77.01 0.7 M0.91 88.24 C28.49 56.52, 56.06 24.8, 77.01 0.7 M4.46 108.55 C38.51 69.38, 72.57 30.2, 98.27 0.63 M4.46 108.55 C39.65 68.06, 74.85 27.58, 98.27 0.63 M17.19 118.29 C38.95 93.26, 60.71 68.23, 119.53 0.56 M17.19 118.29 C43.21 88.36, 69.23 58.43, 119.53 0.56 M36.48 120.49 C75.65 75.43, 114.82 30.37, 140.79 0.49 M36.48 120.49 C74.24 77.06, 111.99 33.62, 140.79 0.49 M57.74 120.42 C87.41 86.3, 117.07 52.17, 162.06 0.42 M57.74 120.42 C87.84 85.8, 117.93 51.18, 162.06 0.42 M79 120.35 C102 93.9, 124.99 67.44, 183.32 0.35 M79 120.35 C107.6 87.45, 136.21 54.54, 183.32 0.35 M100.26 120.28 C135.9 79.29, 171.53 38.3, 204.58 0.28 M100.26 120.28 C134.79 80.57, 169.31 40.85, 204.58 0.28 M121.52 120.21 C143.35 95.11, 165.17 70, 225.18 0.97 M121.52 120.21 C148.93 88.68, 176.34 57.15, 225.18 0.97 M142.78 120.14 C165.88 93.57, 188.98 67, 246.44 0.9 M142.78 120.14 C183.81 72.95, 224.84 25.75, 246.44 0.9 M164.04 120.07 C198.12 80.88, 232.19 41.68, 265.73 3.09 M164.04 120.07 C203.05 75.2, 242.06 30.32, 265.73 3.09 M185.3 120.01 C212.22 89.04, 239.14 58.07, 277.15 14.35 M185.3 120.01 C217.06 83.48, 248.81 46.95, 277.15 14.35 M206.56 119.94 C233.01 89.52, 259.45 59.09, 280.04 35.41 M206.56 119.94 C227.22 96.17, 247.88 72.41, 280.04 35.41 M227.82 119.87 C245.88 99.1, 263.93 78.33, 280.31 59.49 M227.82 119.87 C248.39 96.21, 268.95 72.55, 280.31 59.49 M249.08 119.8 C259.39 107.94, 269.7 96.08, 280.57 83.57 M249.08 119.8 C258.68 108.76, 268.28 97.72, 280.57 83.57" stroke="#ffc9c9" stroke-width="2" fill="none"></path><path d="M30 0 C102.65 0, 175.3 0, 250 0 M30 0 C76.55 0, 123.1 0, 250 0 M250 0 C270 0, 280 10, 280 30 M250 0 C270 0, 280 10, 280 30 M280 30 C280 43.34, 280 56.69, 280 90 M280 30 C280 51.87, 280 73.73, 280 90 M280 90 C280 110, 270 120, 250 120 M280 90 C280 110, 270 120, 250 120 M250 120 C168.21 120, 86.42 120, 30 120 M250 120 C196.1 120, 142.2 120, 30 120 M30 120 C10 120, 0 110, 0 90 M30 120 C10 120, 0 110, 0 90 M0 90 C0 73.96, 0 57.91, 0 30 M0 90 C0 70.81, 0 51.62, 0 30 M0 30 C0 10, 10 0, 30 0 M0 30 C0 10, 10 0, 30 0" stroke="#e03131" stroke-width="4" fill="none"></path></g><g mask="url(#mask-giEYFw8Yfi7IXYJSQsADA)" stroke-linecap="round"><g transform="translate(1451 430) rotate(0 179 0)"><path d="M0 0 C140.72 0, 281.43 0, 358 0 M0 0 C137.72 0, 275.43 0, 358 0" stroke="#1e1e1e" stroke-width="1" fill="none"></path></g><g transform="translate(1451 430) rotate(0 179 0)"><path d="M334.51 8.55 C343.74 5.19, 352.98 1.83, 358 0 M334.51 8.55 C343.54 5.26, 352.58 1.97, 358 0" stroke="#1e1e1e" stroke-width="1" fill="none"></path></g><g transform="translate(1451 430) rotate(0 179 0)"><path d="M334.51 -8.55 C343.74 -5.19, 352.98 -1.83, 358 0 M334.51 -8.55 C343.54 -5.26, 352.58 -1.97, 358 0" stroke="#1e1e1e" stroke-width="1" fill="none"></path></g></g><mask id="mask-giEYFw8Yfi7IXYJSQsADA"><rect x="0" y="0" fill="#fff" width="1909" height="530"></rect><rect x="1518.671875" y="406" fill="#000" width="222.65625" height="48" opacity="1"></rect></mask><g transform="translate(1518.671875 406) rotate(0 111.328125 24)"><text x="111.328125" y="19.3125" font-family="Cascadia, Segoe UI Emoji" font-size="20px" fill="#1e1e1e" text-anchor="middle" style="white-space: pre;" direction="ltr" dominant-baseline="alphabetic">DedustPayout + TON </text><text x="111.328125" y="43.3125" font-family="Cascadia, Segoe UI Emoji" font-size="20px" fill="#1e1e1e" text-anchor="middle" style="white-space: pre;" direction="ltr" dominant-baseline="alphabetic">with gas</text></g><g transform="translate(10 610) rotate(0 63.28125 21.600000000000023)"><text x="0" y="34.762499999999996" font-family="Cascadia, Segoe UI Emoji" font-size="36px" fill="#1e1e1e" text-anchor="start" style="white-space: pre;" direction="ltr" dominant-baseline="alphabetic">StonFi</text></g><g transform="translate(10 730) rotate(0 70.3125 12)"><text x="0" y="19.3125" font-family="Cascadia, Segoe UI Emoji" font-size="20px" fill="#1e1e1e" text-anchor="start" style="white-space: pre;" direction="ltr" dominant-baseline="alphabetic">TON &gt; jetton</text></g><g stroke-linecap="round" transform="translate(10 810) rotate(0 40 20)"><path d="M0 0 L80 0 L80 40 L0 40" stroke="none" stroke-width="0" fill="#b2f2bb"></path><path d="M0 0 C24.19 0, 48.37 0, 80 0 M0 0 C31.53 0, 63.07 0, 80 0 M80 0 C80 15.1, 80 30.2, 80 40 M80 0 C80 10.74, 80 21.48, 80 40 M80 40 C60.2 40, 40.39 40, 0 40 M80 40 C59.21 40, 38.43 40, 0 40 M0 40 C0 30.88, 0 21.76, 0 0 M0 40 C0 27.02, 0 14.04, 0 0" stroke="#1e1e1e" stroke-width="1" fill="none"></path></g><g transform="translate(26.5625 818) rotate(0 23.4375 12)"><text x="23.4375" y="19.3125" font-family="Cascadia, Segoe UI Emoji" font-size="20px" fill="#1e1e1e" text-anchor="middle" style="white-space: pre;" direction="ltr" dominant-baseline="alphabetic">User</text></g><g stroke-linecap="round" transform="translate(450 790) rotate(0 100 41)"><path d="M0 0 L200 0 L200 82 L0 82" stroke="none" stroke-width="0" fill="#a5d8ff"></path><path d="M0 0 C59.43 0, 118.87 0, 200 0 M0 0 C71.87 0, 143.75 0, 200 0 M200 0 C200 18.64, 200 37.27, 200 82 M200 0 C200 18.59, 200 37.18, 200 82 M200 82 C130.79 82, 61.59 82, 0 82 M200 82 C135.27 82, 70.54 82, 0 82 M0 82 C0 49.36, 0 16.71, 0 0 M0 82 C0 52.37, 0 22.74, 0 0" stroke="#1e1e1e" stroke-width="1" fill="none"></path></g><g transform="translate(456.25 807) rotate(0 93.75 24)"><text x="93.75" y="19.3125" font-family="Cascadia, Segoe UI Emoji" font-size="20px" fill="#1e1e1e" text-anchor="middle" style="white-space: pre;" direction="ltr" dominant-baseline="alphabetic">StonFi proxyTON </text><text x="93.75" y="43.3125" font-family="Cascadia, Segoe UI Emoji" font-size="20px" fill="#1e1e1e" text-anchor="middle" style="white-space: pre;" direction="ltr" dominant-baseline="alphabetic">wallet</text></g><g stroke-linecap="round" transform="translate(710 790) rotate(0 50 40)"><path d="M0 0 L100 0 L100 80 L0 80" stroke="none" stroke-width="0" fill="#a5d8ff"></path><path d="M0 0 C30.32 0, 60.64 0, 100 0 M0 0 C28.06 0, 56.13 0, 100 0 M100 0 C100 31.01, 100 62.02, 100 80 M100 0 C100 30.59, 100 61.18, 100 80 M100 80 C77.24 80, 54.49 80, 0 80 M100 80 C70.78 80, 41.55 80, 0 80 M0 80 C0 57.32, 0 34.65, 0 0 M0 80 C0 52.04, 0 24.07, 0 0" stroke="#1e1e1e" stroke-width="1" fill="none"></path></g><g transform="translate(718.984375 806) rotate(0 41.015625 24)"><text x="41.015625" y="19.3125" font-family="Cascadia, Segoe UI Emoji" font-size="20px" fill="#1e1e1e" text-anchor="middle" style="white-space: pre;" direction="ltr" dominant-baseline="alphabetic">StonFi </text><text x="41.015625" y="43.3125" font-family="Cascadia, Segoe UI Emoji" font-size="20px" fill="#1e1e1e" text-anchor="middle" style="white-space: pre;" direction="ltr" dominant-baseline="alphabetic">router</text></g><g stroke-linecap="round" transform="translate(870 790) rotate(0 50 40)"><path d="M0 0 L100 0 L100 80 L0 80" stroke="none" stroke-width="0" fill="#a5d8ff"></path><path d="M0 0 C21.07 0, 42.13 0, 100 0 M0 0 C34.19 0, 68.39 0, 100 0 M100 0 C100 24.02, 100 48.05, 100 80 M100 0 C100 28.91, 100 57.83, 100 80 M100 80 C72.85 80, 45.7 80, 0 80 M100 80 C68.41 80, 36.83 80, 0 80 M0 80 C0 53.17, 0 26.33, 0 0 M0 80 C0 49.51, 0 19.02, 0 0" stroke="#1e1e1e" stroke-width="1" fill="none"></path></g><g transform="translate(878.984375 806) rotate(0 41.015625 24)"><text x="41.015625" y="19.3125" font-family="Cascadia, Segoe UI Emoji" font-size="20px" fill="#1e1e1e" text-anchor="middle" style="white-space: pre;" direction="ltr" dominant-baseline="alphabetic">StonFi </text><text x="41.015625" y="43.3125" font-family="Cascadia, Segoe UI Emoji" font-size="20px" fill="#1e1e1e" text-anchor="middle" style="white-space: pre;" direction="ltr" dominant-baseline="alphabetic">pool</text></g><g stroke-linecap="round" transform="translate(1030 790) rotate(0 50 40)"><path d="M0 0 L100 0 L100 80 L0 80" stroke="none" stroke-width="0" fill="#a5d8ff"></path><path d="M0 0 C37.74 0, 75.49 0, 100 0 M0 0 C24.07 0, 48.13 0, 100 0 M100 0 C100 25.75, 100 51.5, 100 80 M100 0 C100 26.48, 100 52.95, 100 80 M100 80 C63.15 80, 26.3 80, 0 80 M100 80 C74.98 80, 49.96 80, 0 80 M0 80 C0 51.89, 0 23.78, 0 0 M0 80 C0 63.26, 0 46.51, 0 0" stroke="#1e1e1e" stroke-width="1" fill="none"></path></g><g transform="translate(1038.984375 806) rotate(0 41.015625 24)"><text x="41.015625" y="19.3125" font-family="Cascadia, Segoe UI Emoji" font-size="20px" fill="#1e1e1e" text-anchor="middle" style="white-space: pre;" direction="ltr" dominant-baseline="alphabetic">StonFi </text><text x="41.015625" y="43.3125" font-family="Cascadia, Segoe UI Emoji" font-size="20px" fill="#1e1e1e" text-anchor="middle" style="white-space: pre;" direction="ltr" dominant-baseline="alphabetic">router</text></g><g mask="url(#mask--3YV_d468mCmPARmK9lli)" stroke-linecap="round"><g transform="translate(91 830) rotate(0 179 0)"><path d="M0 0 C79.47 0, 158.95 0, 358 0 M0 0 C114 0, 227.99 0, 358 0" stroke="#2f9e44" stroke-width="4" fill="none"></path></g><g transform="translate(91 830) rotate(0 179 0)"><path d="M334.51 8.55 C339.72 6.65, 344.94 4.75, 358 0 M334.51 8.55 C341.99 5.83, 349.47 3.11, 358 0" stroke="#2f9e44" stroke-width="4" fill="none"></path></g><g transform="translate(91 830) rotate(0 179 0)"><path d="M334.51 -8.55 C339.72 -6.65, 344.94 -4.75, 358 0 M334.51 -8.55 C341.99 -5.83, 349.47 -3.11, 358 0" stroke="#2f9e44" stroke-width="4" fill="none"></path></g></g><mask id="mask--3YV_d468mCmPARmK9lli"><rect x="0" y="0" fill="#fff" width="549" height="930"></rect><rect x="170.390625" y="818" fill="#000" width="199.21875" height="24" opacity="1"></rect></mask><g transform="translate(170.390625 818) rotate(0 99.609375 12)"><text x="99.609375" y="19.3125" font-family="Cascadia, Segoe UI Emoji" font-size="20px" fill="#2f9e44" text-anchor="middle" style="white-space: pre;" direction="ltr" dominant-baseline="alphabetic">TON + swap params</text></g><g stroke-linecap="round"><g transform="translate(651 830) rotate(0 29 0)"><path d="M0 0 C9.67 0, 48.33 0, 58 0 M0 0 C9.67 0, 48.33 0, 58 0" stroke="#1e1e1e" stroke-width="1" fill="none"></path></g><g transform="translate(651 830) rotate(0 29 0)"><path d="M34.51 8.55 C40.11 6.51, 45.72 4.47, 58 0 M34.51 8.55 C42.65 5.59, 50.79 2.63, 58 0" stroke="#1e1e1e" stroke-width="1" fill="none"></path></g><g transform="translate(651 830) rotate(0 29 0)"><path d="M34.51 -8.55 C40.11 -6.51, 45.72 -4.47, 58 0 M34.51 -8.55 C42.65 -5.59, 50.79 -2.63, 58 0" stroke="#1e1e1e" stroke-width="1" fill="none"></path></g></g><mask></mask><g stroke-linecap="round"><g transform="translate(811 830) rotate(0 29 0)"><path d="M0 0 C9.67 0, 48.33 0, 58 0 M0 0 C9.67 0, 48.33 0, 58 0" stroke="#1e1e1e" stroke-width="1" fill="none"></path></g><g transform="translate(811 830) rotate(0 29 0)"><path d="M34.51 8.55 C41.26 6.09, 48.02 3.63, 58 0 M34.51 8.55 C41.74 5.92, 48.97 3.29, 58 0" stroke="#1e1e1e" stroke-width="1" fill="none"></path></g><g transform="translate(811 830) rotate(0 29 0)"><path d="M34.51 -8.55 C41.26 -6.09, 48.02 -3.63, 58 0 M34.51 -8.55 C41.74 -5.92, 48.97 -3.29, 58 0" stroke="#1e1e1e" stroke-width="1" fill="none"></path></g></g><mask></mask><g stroke-linecap="round"><g transform="translate(971 830) rotate(0 29 0)"><path d="M0 0 C9.67 0, 48.33 0, 58 0 M0 0 C9.67 0, 48.33 0, 58 0" stroke="#1e1e1e" stroke-width="1" fill="none"></path></g><g transform="translate(971 830) rotate(0 29 0)"><path d="M34.51 8.55 C39.68 6.67, 44.85 4.79, 58 0 M34.51 8.55 C41.92 5.85, 49.33 3.16, 58 0" stroke="#1e1e1e" stroke-width="1" fill="none"></path></g><g transform="translate(971 830) rotate(0 29 0)"><path d="M34.51 -8.55 C39.68 -6.67, 44.85 -4.79, 58 0 M34.51 -8.55 C41.92 -5.85, 49.33 -3.16, 58 0" stroke="#1e1e1e" stroke-width="1" fill="none"></path></g></g><mask></mask><g stroke-linecap="round" transform="translate(1190 790) rotate(0 90 41)"><path d="M0 0 L180 0 L180 82 L0 82" stroke="none" stroke-width="0" fill="#a5d8ff"></path><path d="M0 0 C40.29 0, 80.57 0, 180 0 M0 0 C69.67 0, 139.34 0, 180 0 M180 0 C180 32.07, 180 64.14, 180 82 M180 0 C180 32.5, 180 64.99, 180 82 M180 82 C135.18 82, 90.36 82, 0 82 M180 82 C126.22 82, 72.44 82, 0 82 M0 82 C0 50.63, 0 19.27, 0 0 M0 82 C0 53.95, 0 25.91, 0 0" stroke="#1e1e1e" stroke-width="1" fill="none"></path></g><g transform="translate(1203.828125 807) rotate(0 76.171875 24)"><text x="76.171875" y="19.3125" font-family="Cascadia, Segoe UI Emoji" font-size="20px" fill="#1e1e1e" text-anchor="middle" style="white-space: pre;" direction="ltr" dominant-baseline="alphabetic">StonFi </text><text x="76.171875" y="43.3125" font-family="Cascadia, Segoe UI Emoji" font-size="20px" fill="#1e1e1e" text-anchor="middle" style="white-space: pre;" direction="ltr" dominant-baseline="alphabetic">jetton wallet</text></g><g stroke-linecap="round" transform="translate(1430 790) rotate(0 90 41)"><path d="M0 0 L180 0 L180 82 L0 82" stroke="none" stroke-width="0" fill="#b2f2bb"></path><path d="M0 0 C65.7 0, 131.4 0, 180 0 M0 0 C60.22 0, 120.45 0, 180 0 M180 0 C180 30.25, 180 60.49, 180 82 M180 0 C180 29.34, 180 58.68, 180 82 M180 82 C142.63 82, 105.25 82, 0 82 M180 82 C112.35 82, 44.69 82, 0 82 M0 82 C0 49.58, 0 17.17, 0 0 M0 82 C0 59.77, 0 37.54, 0 0" stroke="#1e1e1e" stroke-width="1" fill="none"></path></g><g transform="translate(1443.828125 807) rotate(0 76.171875 24)"><text x="76.171875" y="19.3125" font-family="Cascadia, Segoe UI Emoji" font-size="20px" fill="#1e1e1e" text-anchor="middle" style="white-space: pre;" direction="ltr" dominant-baseline="alphabetic">User </text><text x="76.171875" y="43.3125" font-family="Cascadia, Segoe UI Emoji" font-size="20px" fill="#1e1e1e" text-anchor="middle" style="white-space: pre;" direction="ltr" dominant-baseline="alphabetic">jetton wallet</text></g><g stroke-linecap="round"><g transform="translate(1130 830) rotate(0 30 0)"><path d="M0 0 C10 0, 50 0, 60 0 M0 0 C10 0, 50 0, 60 0" stroke="#1e1e1e" stroke-width="1" fill="none"></path></g><g transform="translate(1130 830) rotate(0 30 0)"><path d="M36.51 8.55 C41.87 6.6, 47.23 4.65, 60 0 M36.51 8.55 C42.01 6.55, 47.51 4.55, 60 0" stroke="#1e1e1e" stroke-width="1" fill="none"></path></g><g transform="translate(1130 830) rotate(0 30 0)"><path d="M36.51 -8.55 C41.87 -6.6, 47.23 -4.65, 60 0 M36.51 -8.55 C42.01 -6.55, 47.51 -4.55, 60 0" stroke="#1e1e1e" stroke-width="1" fill="none"></path></g></g><mask></mask><g stroke-linecap="round"><g transform="translate(1370 830) rotate(0 30 0)"><path d="M0 0 C10 0, 50 0, 60 0 M0 0 C10 0, 50 0, 60 0" stroke="#1e1e1e" stroke-width="1" fill="none"></path></g><g transform="translate(1370 830) rotate(0 30 0)"><path d="M36.51 8.55 C45.87 5.14, 55.23 1.74, 60 0 M36.51 8.55 C42.6 6.33, 48.68 4.12, 60 0" stroke="#1e1e1e" stroke-width="1" fill="none"></path></g><g transform="translate(1370 830) rotate(0 30 0)"><path d="M36.51 -8.55 C45.87 -5.14, 55.23 -1.74, 60 0 M36.51 -8.55 C42.6 -6.33, 48.68 -4.12, 60 0" stroke="#1e1e1e" stroke-width="1" fill="none"></path></g></g><mask></mask><g stroke-linecap="round" transform="translate(1830 810) rotate(0 40 20)"><path d="M0 0 L80 0 L80 40 L0 40" stroke="none" stroke-width="0" fill="#b2f2bb"></path><path d="M0 0 C16.97 0, 33.95 0, 80 0 M0 0 C17.79 0, 35.59 0, 80 0 M80 0 C80 8.33, 80 16.67, 80 40 M80 0 C80 8.72, 80 17.44, 80 40 M80 40 C63.62 40, 47.24 40, 0 40 M80 40 C51.75 40, 23.49 40, 0 40 M0 40 C0 30.91, 0 21.81, 0 0 M0 40 C0 28.87, 0 17.73, 0 0" stroke="#1e1e1e" stroke-width="1" fill="none"></path></g><g transform="translate(1846.5625 818) rotate(0 23.4375 12)"><text x="23.4375" y="19.3125" font-family="Cascadia, Segoe UI Emoji" font-size="20px" fill="#1e1e1e" text-anchor="middle" style="white-space: pre;" direction="ltr" dominant-baseline="alphabetic">User</text></g><g stroke-linecap="round" transform="translate(1650 770) rotate(0 70 60)"><path d="M7.33 7.7 C7.33 7.7, 7.33 7.7, 7.33 7.7 M7.33 7.7 C7.33 7.7, 7.33 7.7, 7.33 7.7 M0.38 40.08 C13.78 24.66, 27.18 9.24, 34.49 0.83 M0.38 40.08 C11.94 26.78, 23.5 13.48, 34.49 0.83 M0.65 64.16 C20.03 41.86, 39.42 19.55, 55.75 0.77 M0.65 64.16 C20.42 41.41, 40.2 18.65, 55.75 0.77 M0.91 88.24 C16.65 70.14, 32.38 52.04, 77.01 0.7 M0.91 88.24 C21.24 64.85, 41.58 41.46, 77.01 0.7 M4.46 108.55 C38.46 69.44, 72.46 30.33, 98.27 0.63 M4.46 108.55 C35.02 73.39, 65.58 38.23, 98.27 0.63 M17.19 118.29 C53.56 76.46, 89.92 34.63, 118.88 1.31 M17.19 118.29 C41.52 90.31, 65.84 62.32, 118.88 1.31 M36.48 120.49 C64.4 88.37, 92.32 56.26, 133.58 8.79 M36.48 120.49 C73.61 77.78, 110.74 35.06, 133.58 8.79 M57.74 120.42 C84.41 89.74, 111.09 59.05, 139.75 26.08 M57.74 120.42 C84.7 89.41, 111.65 58.4, 139.75 26.08 M79 120.35 C99.98 96.22, 120.95 72.09, 140.02 50.16 M79 120.35 C95.98 100.83, 112.95 81.3, 140.02 50.16 M100.26 120.28 C109.63 109.51, 119 98.73, 139.63 75 M100.26 120.28 C115.45 102.81, 130.63 85.35, 139.63 75 M123.49 117.95 C128.94 111.68, 134.39 105.41, 139.24 99.84 M123.49 117.95 C129.62 110.9, 135.75 103.85, 139.24 99.84" stroke="#ffc9c9" stroke-width="2" fill="none"></path><path d="M30 0 C54.35 0, 78.7 0, 110 0 M30 0 C52.65 0, 75.3 0, 110 0 M110 0 C130 0, 140 10, 140 30 M110 0 C130 0, 140 10, 140 30 M140 30 C140 48.14, 140 66.27, 140 90 M140 30 C140 42.44, 140 54.87, 140 90 M140 90 C140 110, 130 120, 110 120 M140 90 C140 110, 130 120, 110 120 M110 120 C85.13 120, 60.25 120, 30 120 M110 120 C83 120, 56 120, 30 120 M30 120 C10 120, 0 110, 0 90 M30 120 C10 120, 0 110, 0 90 M0 90 C0 77.34, 0 64.68, 0 30 M0 90 C0 75.88, 0 61.77, 0 30 M0 30 C0 10, 10 0, 30 0 M0 30 C0 10, 10 0, 30 0" stroke="#e03131" stroke-width="4" fill="none"></path></g><g mask="url(#mask-B5GwUrTgTHWzsKa1vbSxv)" stroke-linecap="round"><g transform="translate(1610 830) rotate(0 110 0)"><path d="M0 0 C36.67 0, 183.33 0, 220 0 M0 0 C36.67 0, 183.33 0, 220 0" stroke="#1e1e1e" stroke-width="1" fill="none"></path></g><g transform="translate(1610 830) rotate(0 110 0)"><path d="M196.51 8.55 C201.73 6.65, 206.96 4.75, 220 0 M196.51 8.55 C201.4 6.77, 206.3 4.99, 220 0" stroke="#1e1e1e" stroke-width="1" fill="none"></path></g><g transform="translate(1610 830) rotate(0 110 0)"><path d="M196.51 -8.55 C201.73 -6.65, 206.96 -4.75, 220 0 M196.51 -8.55 C201.4 -6.77, 206.3 -4.99, 220 0" stroke="#1e1e1e" stroke-width="1" fill="none"></path></g></g><mask id="mask-B5GwUrTgTHWzsKa1vbSxv"><rect x="0" y="0" fill="#fff" width="1930" height="930"></rect><rect x="1684.84375" y="818" fill="#000" width="70.3125" height="24" opacity="1"></rect></mask><g transform="translate(1684.84375 818) rotate(0 35.15625 12)"><text x="35.15625" y="19.3125" font-family="Cascadia, Segoe UI Emoji" font-size="20px" fill="#1e1e1e" text-anchor="middle" style="white-space: pre;" direction="ltr" dominant-baseline="alphabetic">Excess</text></g><g transform="translate(10 930) rotate(0 70.3125 12)"><text x="0" y="19.3125" font-family="Cascadia, Segoe UI Emoji" font-size="20px" fill="#1e1e1e" text-anchor="start" style="white-space: pre;" direction="ltr" dominant-baseline="alphabetic">jetton &gt; TON</text></g><g stroke-linecap="round" transform="translate(10 1010) rotate(0 40 20)"><path d="M0 0 L80 0 L80 40 L0 40" stroke="none" stroke-width="0" fill="#b2f2bb"></path><path d="M0 0 C18.63 0, 37.25 0, 80 0 M0 0 C18.88 0, 37.75 0, 80 0 M80 0 C80 9.52, 80 19.04, 80 40 M80 0 C80 15.92, 80 31.84, 80 40 M80 40 C53.43 40, 26.86 40, 0 40 M80 40 C50.9 40, 21.8 40, 0 40 M0 40 C0 30.64, 0 21.29, 0 0 M0 40 C0 29.5, 0 19, 0 0" stroke="#1e1e1e" stroke-width="1" fill="none"></path></g><g transform="translate(26.5625 1018) rotate(0 23.4375 12)"><text x="23.4375" y="19.3125" font-family="Cascadia, Segoe UI Emoji" font-size="20px" fill="#1e1e1e" text-anchor="middle" style="white-space: pre;" direction="ltr" dominant-baseline="alphabetic">User</text></g><g stroke-linecap="round" transform="translate(390 990) rotate(0 90 41)"><path d="M0 0 L180 0 L180 82 L0 82" stroke="none" stroke-width="0" fill="#b2f2bb"></path><path d="M0 0 C43.75 0, 87.51 0, 180 0 M0 0 C49.06 0, 98.11 0, 180 0 M180 0 C180 31.17, 180 62.33, 180 82 M180 0 C180 19.01, 180 38.03, 180 82 M180 82 C137.7 82, 95.39 82, 0 82 M180 82 C125.77 82, 71.53 82, 0 82 M0 82 C0 57.54, 0 33.07, 0 0 M0 82 C0 54.5, 0 27, 0 0" stroke="#1e1e1e" stroke-width="1" fill="none"></path></g><g transform="translate(403.828125 1007) rotate(0 76.171875 24)"><text x="76.171875" y="19.3125" font-family="Cascadia, Segoe UI Emoji" font-size="20px" fill="#1e1e1e" text-anchor="middle" style="white-space: pre;" direction="ltr" dominant-baseline="alphabetic">User </text><text x="76.171875" y="43.3125" font-family="Cascadia, Segoe UI Emoji" font-size="20px" fill="#1e1e1e" text-anchor="middle" style="white-space: pre;" direction="ltr" dominant-baseline="alphabetic">jetton wallet</text></g><g stroke-linecap="round" transform="translate(650 990) rotate(0 90 41)"><path d="M0 0 L180 0 L180 82 L0 82" stroke="none" stroke-width="0" fill="#a5d8ff"></path><path d="M0 0 C50.59 0, 101.17 0, 180 0 M0 0 C66.42 0, 132.83 0, 180 0 M180 0 C180 20.79, 180 41.57, 180 82 M180 0 C180 30.98, 180 61.97, 180 82 M180 82 C125.4 82, 70.8 82, 0 82 M180 82 C111.01 82, 42.03 82, 0 82 M0 82 C0 53.73, 0 25.45, 0 0 M0 82 C0 54.56, 0 27.11, 0 0" stroke="#1e1e1e" stroke-width="1" fill="none"></path></g><g transform="translate(663.828125 1007) rotate(0 76.171875 24)"><text x="76.171875" y="19.3125" font-family="Cascadia, Segoe UI Emoji" font-size="20px" fill="#1e1e1e" text-anchor="middle" style="white-space: pre;" direction="ltr" dominant-baseline="alphabetic">StonFi </text><text x="76.171875" y="43.3125" font-family="Cascadia, Segoe UI Emoji" font-size="20px" fill="#1e1e1e" text-anchor="middle" style="white-space: pre;" direction="ltr" dominant-baseline="alphabetic">jetton wallet</text></g><g stroke-linecap="round" transform="translate(890 990) rotate(0 50 40)"><path d="M0 0 L100 0 L100 80 L0 80" stroke="none" stroke-width="0" fill="#a5d8ff"></path><path d="M0 0 C37.7 0, 75.41 0, 100 0 M0 0 C32.62 0, 65.24 0, 100 0 M100 0 C100 17.2, 100 34.41, 100 80 M100 0 C100 25.34, 100 50.69, 100 80 M100 80 C60.1 80, 20.19 80, 0 80 M100 80 C61.36 80, 22.73 80, 0 80 M0 80 C0 52.09, 0 24.17, 0 0 M0 80 C0 60.95, 0 41.89, 0 0" stroke="#1e1e1e" stroke-width="1" fill="none"></path></g><g transform="translate(898.984375 1006) rotate(0 41.015625 24)"><text x="41.015625" y="19.3125" font-family="Cascadia, Segoe UI Emoji" font-size="20px" fill="#1e1e1e" text-anchor="middle" style="white-space: pre;" direction="ltr" dominant-baseline="alphabetic">StonFi </text><text x="41.015625" y="43.3125" font-family="Cascadia, Segoe UI Emoji" font-size="20px" fill="#1e1e1e" text-anchor="middle" style="white-space: pre;" direction="ltr" dominant-baseline="alphabetic">router</text></g><g stroke-linecap="round" transform="translate(1050 990) rotate(0 50 40)"><path d="M0 0 L100 0 L100 80 L0 80" stroke="none" stroke-width="0" fill="#a5d8ff"></path><path d="M0 0 C31.46 0, 62.92 0, 100 0 M0 0 C39.49 0, 78.98 0, 100 0 M100 0 C100 25.96, 100 51.92, 100 80 M100 0 C100 22.64, 100 45.29, 100 80 M100 80 C66.59 80, 33.18 80, 0 80 M100 80 C73.33 80, 46.65 80, 0 80 M0 80 C0 62.05, 0 44.09, 0 0 M0 80 C0 51.21, 0 22.42, 0 0" stroke="#1e1e1e" stroke-width="1" fill="none"></path></g><g transform="translate(1058.984375 1006) rotate(0 41.015625 24)"><text x="41.015625" y="19.3125" font-family="Cascadia, Segoe UI Emoji" font-size="20px" fill="#1e1e1e" text-anchor="middle" style="white-space: pre;" direction="ltr" dominant-baseline="alphabetic">StonFi </text><text x="41.015625" y="43.3125" font-family="Cascadia, Segoe UI Emoji" font-size="20px" fill="#1e1e1e" text-anchor="middle" style="white-space: pre;" direction="ltr" dominant-baseline="alphabetic">pool</text></g><g stroke-linecap="round" transform="translate(1210 990) rotate(0 50 40)"><path d="M0 0 L100 0 L100 80 L0 80" stroke="none" stroke-width="0" fill="#a5d8ff"></path><path d="M0 0 C26.22 0, 52.44 0, 100 0 M0 0 C20.42 0, 40.85 0, 100 0 M100 0 C100 26.9, 100 53.8, 100 80 M100 0 C100 26.96, 100 53.92, 100 80 M100 80 C69.3 80, 38.59 80, 0 80 M100 80 C65.54 80, 31.07 80, 0 80 M0 80 C0 63.66, 0 47.32, 0 0 M0 80 C0 58.85, 0 37.7, 0 0" stroke="#1e1e1e" stroke-width="1" fill="none"></path></g><g transform="translate(1218.984375 1006) rotate(0 41.015625 24)"><text x="41.015625" y="19.3125" font-family="Cascadia, Segoe UI Emoji" font-size="20px" fill="#1e1e1e" text-anchor="middle" style="white-space: pre;" direction="ltr" dominant-baseline="alphabetic">StonFi </text><text x="41.015625" y="43.3125" font-family="Cascadia, Segoe UI Emoji" font-size="20px" fill="#1e1e1e" text-anchor="middle" style="white-space: pre;" direction="ltr" dominant-baseline="alphabetic">router</text></g><g stroke-linecap="round"><g transform="translate(991 1030) rotate(0 29 0)"><path d="M0 0 C9.67 0, 48.33 0, 58 0 M0 0 C9.67 0, 48.33 0, 58 0" stroke="#1e1e1e" stroke-width="1" fill="none"></path></g><g transform="translate(991 1030) rotate(0 29 0)"><path d="M34.51 8.55 C41.55 5.99, 48.6 3.42, 58 0 M34.51 8.55 C39.47 6.74, 44.44 4.94, 58 0" stroke="#1e1e1e" stroke-width="1" fill="none"></path></g><g transform="translate(991 1030) rotate(0 29 0)"><path d="M34.51 -8.55 C41.55 -5.99, 48.6 -3.42, 58 0 M34.51 -8.55 C39.47 -6.74, 44.44 -4.94, 58 0" stroke="#1e1e1e" stroke-width="1" fill="none"></path></g></g><mask></mask><g stroke-linecap="round"><g transform="translate(1151 1030) rotate(0 29 0)"><path d="M0 0 C9.67 0, 48.33 0, 58 0 M0 0 C9.67 0, 48.33 0, 58 0" stroke="#1e1e1e" stroke-width="1" fill="none"></path></g><g transform="translate(1151 1030) rotate(0 29 0)"><path d="M34.51 8.55 C39.56 6.71, 44.61 4.87, 58 0 M34.51 8.55 C41.95 5.84, 49.39 3.13, 58 0" stroke="#1e1e1e" stroke-width="1" fill="none"></path></g><g transform="translate(1151 1030) rotate(0 29 0)"><path d="M34.51 -8.55 C39.56 -6.71, 44.61 -4.87, 58 0 M34.51 -8.55 C41.95 -5.84, 49.39 -3.13, 58 0" stroke="#1e1e1e" stroke-width="1" fill="none"></path></g></g><mask></mask><g stroke-linecap="round" transform="translate(1370 990) rotate(0 100 41)"><path d="M0 0 L200 0 L200 82 L0 82" stroke="none" stroke-width="0" fill="#a5d8ff"></path><path d="M0 0 C66.05 0, 132.1 0, 200 0 M0 0 C49.32 0, 98.65 0, 200 0 M200 0 C200 31.09, 200 62.19, 200 82 M200 0 C200 26.02, 200 52.05, 200 82 M200 82 C153.68 82, 107.35 82, 0 82 M200 82 C130.81 82, 61.63 82, 0 82 M0 82 C0 53.01, 0 24.02, 0 0 M0 82 C0 61.34, 0 40.68, 0 0" stroke="#1e1e1e" stroke-width="1" fill="none"></path></g><g transform="translate(1376.25 1007) rotate(0 93.75 24)"><text x="93.75" y="19.3125" font-family="Cascadia, Segoe UI Emoji" font-size="20px" fill="#1e1e1e" text-anchor="middle" style="white-space: pre;" direction="ltr" dominant-baseline="alphabetic">StonFi proxyTON </text><text x="93.75" y="43.3125" font-family="Cascadia, Segoe UI Emoji" font-size="20px" fill="#1e1e1e" text-anchor="middle" style="white-space: pre;" direction="ltr" dominant-baseline="alphabetic">wallet</text></g><g stroke-linecap="round"><g transform="translate(871 430) rotate(0 29 0)"><path d="M0 0 C9.67 0, 48.33 0, 58 0 M0 0 C9.67 0, 48.33 0, 58 0" stroke="#1e1e1e" stroke-width="1" fill="none"></path></g><g transform="translate(871 430) rotate(0 29 0)"><path d="M34.51 8.55 C43.81 5.16, 53.12 1.78, 58 0 M34.51 8.55 C42.02 5.82, 49.52 3.08, 58 0" stroke="#1e1e1e" stroke-width="1" fill="none"></path></g><g transform="translate(871 430) rotate(0 29 0)"><path d="M34.51 -8.55 C43.81 -5.16, 53.12 -1.78, 58 0 M34.51 -8.55 C42.02 -5.82, 49.52 -3.08, 58 0" stroke="#1e1e1e" stroke-width="1" fill="none"></path></g></g><mask></mask><g stroke-linecap="round" transform="translate(2030 1010) rotate(0 40 20)"><path d="M0 0 L80 0 L80 40 L0 40" stroke="none" stroke-width="0" fill="#b2f2bb"></path><path d="M0 0 C30.88 0, 61.75 0, 80 0 M0 0 C23.01 0, 46.01 0, 80 0 M80 0 C80 9.83, 80 19.66, 80 40 M80 0 C80 10.9, 80 21.81, 80 40 M80 40 C58.02 40, 36.05 40, 0 40 M80 40 C62.95 40, 45.91 40, 0 40 M0 40 C0 24.87, 0 9.73, 0 0 M0 40 C0 26.5, 0 13, 0 0" stroke="#1e1e1e" stroke-width="1" fill="none"></path></g><g transform="translate(2046.5625 1018) rotate(0 23.4375 12)"><text x="23.4375" y="19.3125" font-family="Cascadia, Segoe UI Emoji" font-size="20px" fill="#1e1e1e" text-anchor="middle" style="white-space: pre;" direction="ltr" dominant-baseline="alphabetic">User</text></g><g mask="url(#mask-EX_1UFlI39eTSHIS4mC5C)" stroke-linecap="round"><g transform="translate(90 1030) rotate(0 150 0)"><path d="M0 0 C95.86 0, 191.73 0, 300 0 M0 0 C87.46 0, 174.91 0, 300 0" stroke="#2f9e44" stroke-width="4" fill="none"></path></g><g transform="translate(90 1030) rotate(0 150 0)"><path d="M276.51 8.55 C284.01 5.82, 291.52 3.09, 300 0 M276.51 8.55 C283.36 6.06, 290.2 3.57, 300 0" stroke="#2f9e44" stroke-width="4" fill="none"></path></g><g transform="translate(90 1030) rotate(0 150 0)"><path d="M276.51 -8.55 C284.01 -5.82, 291.52 -3.09, 300 0 M276.51 -8.55 C283.36 -6.06, 290.2 -3.57, 300 0" stroke="#2f9e44" stroke-width="4" fill="none"></path></g></g><mask id="mask-EX_1UFlI39eTSHIS4mC5C"><rect x="0" y="0" fill="#fff" width="490" height="1130"></rect><rect x="157.96875" y="1006" fill="#000" width="164.0625" height="48" opacity="1"></rect></mask><g transform="translate(157.96875 1006) rotate(0 82.03125 24)"><text x="82.03125" y="19.3125" font-family="Cascadia, Segoe UI Emoji" font-size="20px" fill="#2f9e44" text-anchor="middle" style="white-space: pre;" direction="ltr" dominant-baseline="alphabetic">jetton + swap </text><text x="82.03125" y="43.3125" font-family="Cascadia, Segoe UI Emoji" font-size="20px" fill="#2f9e44" text-anchor="middle" style="white-space: pre;" direction="ltr" dominant-baseline="alphabetic">params</text></g><g stroke-linecap="round"><g transform="translate(571 1030) rotate(0 39 0)"><path d="M0 0 C13 0, 65 0, 78 0 M0 0 C13 0, 65 0, 78 0" stroke="#1e1e1e" stroke-width="1" fill="none"></path></g><g transform="translate(571 1030) rotate(0 39 0)"><path d="M54.51 8.55 C60.71 6.29, 66.91 4.04, 78 0 M54.51 8.55 C62.94 5.48, 71.38 2.41, 78 0" stroke="#1e1e1e" stroke-width="1" fill="none"></path></g><g transform="translate(571 1030) rotate(0 39 0)"><path d="M54.51 -8.55 C60.71 -6.29, 66.91 -4.04, 78 0 M54.51 -8.55 C62.94 -5.48, 71.38 -2.41, 78 0" stroke="#1e1e1e" stroke-width="1" fill="none"></path></g></g><mask></mask><g stroke-linecap="round"><g transform="translate(830 1030) rotate(0 30 0)"><path d="M0 0 C10 0, 50 0, 60 0 M0 0 C10 0, 50 0, 60 0" stroke="#1e1e1e" stroke-width="1" fill="none"></path></g><g transform="translate(830 1030) rotate(0 30 0)"><path d="M36.51 8.55 C44.17 5.76, 51.84 2.97, 60 0 M36.51 8.55 C42.28 6.45, 48.06 4.35, 60 0" stroke="#1e1e1e" stroke-width="1" fill="none"></path></g><g transform="translate(830 1030) rotate(0 30 0)"><path d="M36.51 -8.55 C44.17 -5.76, 51.84 -2.97, 60 0 M36.51 -8.55 C42.28 -6.45, 48.06 -4.35, 60 0" stroke="#1e1e1e" stroke-width="1" fill="none"></path></g></g><mask></mask><g stroke-linecap="round"><g transform="translate(1310 1030) rotate(0 30 0)"><path d="M0 0 C10 0, 50 0, 60 0 M0 0 C10 0, 50 0, 60 0" stroke="#1e1e1e" stroke-width="1" fill="none"></path></g><g transform="translate(1310 1030) rotate(0 30 0)"><path d="M36.51 8.55 C45.29 5.35, 54.07 2.16, 60 0 M36.51 8.55 C42.38 6.41, 48.25 4.28, 60 0" stroke="#1e1e1e" stroke-width="1" fill="none"></path></g><g transform="translate(1310 1030) rotate(0 30 0)"><path d="M36.51 -8.55 C45.29 -5.35, 54.07 -2.16, 60 0 M36.51 -8.55 C42.38 -6.41, 48.25 -4.28, 60 0" stroke="#1e1e1e" stroke-width="1" fill="none"></path></g></g><mask></mask><g stroke-linecap="round" transform="translate(1670 970) rotate(0 130 60)"><path d="M7.33 7.7 C7.33 7.7, 7.33 7.7, 7.33 7.7 M7.33 7.7 C7.33 7.7, 7.33 7.7, 7.33 7.7 M0.38 40.08 C12.59 26.03, 24.8 11.99, 34.49 0.83 M0.38 40.08 C13.53 24.95, 26.68 9.82, 34.49 0.83 M0.65 64.16 C16.76 45.62, 32.87 27.09, 55.75 0.77 M0.65 64.16 C13.32 49.58, 26 35, 55.75 0.77 M0.91 88.24 C30.18 54.58, 59.44 20.92, 77.01 0.7 M0.91 88.24 C21.98 64.01, 43.05 39.77, 77.01 0.7 M4.46 108.55 C31.67 77.25, 58.88 45.95, 98.27 0.63 M4.46 108.55 C25.53 84.31, 46.6 60.07, 98.27 0.63 M17.19 118.29 C53.09 77, 88.98 35.71, 119.53 0.56 M17.19 118.29 C56.5 73.07, 95.82 27.84, 119.53 0.56 M36.48 120.49 C59.69 93.79, 82.91 67.08, 140.79 0.49 M36.48 120.49 C57.41 96.41, 78.34 72.33, 140.79 0.49 M57.74 120.42 C78.98 95.98, 100.23 71.55, 162.06 0.42 M57.74 120.42 C86.48 87.36, 115.21 54.3, 162.06 0.42 M79 120.35 C106.41 88.82, 133.81 57.3, 183.32 0.35 M79 120.35 C109.05 85.79, 139.09 51.23, 183.32 0.35 M100.26 120.28 C138.54 76.25, 176.81 32.22, 204.58 0.28 M100.26 120.28 C122.95 94.18, 145.64 68.08, 204.58 0.28 M121.52 120.21 C153.66 83.24, 185.8 46.26, 225.18 0.97 M121.52 120.21 C148.99 88.61, 176.46 57.01, 225.18 0.97 M142.78 120.14 C167.27 91.98, 191.75 63.81, 244.47 3.16 M142.78 120.14 C170.77 87.95, 198.75 55.76, 244.47 3.16 M164.04 120.07 C191.11 88.93, 218.18 57.79, 257.2 12.91 M164.04 120.07 C188.11 92.39, 212.18 64.7, 257.2 12.91 M185.3 120.01 C207.89 94.02, 230.48 68.04, 260.09 33.97 M185.3 120.01 C201.16 101.76, 217.02 83.52, 260.09 33.97 M206.56 119.94 C220.38 104.04, 234.19 88.15, 260.36 58.05 M206.56 119.94 C219.65 104.89, 232.73 89.84, 260.36 58.05 M227.82 119.87 C234.51 112.17, 241.2 104.48, 260.63 82.13 M227.82 119.87 C240.61 105.16, 253.4 90.44, 260.63 82.13" stroke="#b2f2bb" stroke-width="2" fill="none"></path><path d="M30 0 C99.55 0, 169.09 0, 230 0 M30 0 C89.59 0, 149.18 0, 230 0 M230 0 C250 0, 260 10, 260 30 M230 0 C250 0, 260 10, 260 30 M260 30 C260 53.99, 260 77.97, 260 90 M260 30 C260 50.41, 260 70.81, 260 90 M260 90 C260 110, 250 120, 230 120 M260 90 C260 110, 250 120, 230 120 M230 120 C159.81 120, 89.61 120, 30 120 M230 120 C176.08 120, 122.16 120, 30 120 M30 120 C10 120, 0 110, 0 90 M30 120 C10 120, 0 110, 0 90 M0 90 C0 75.04, 0 60.09, 0 30 M0 90 C0 73.38, 0 56.76, 0 30 M0 30 C0 10, 10 0, 30 0 M0 30 C0 10, 10 0, 30 0" stroke="#2f9e44" stroke-width="4" fill="none"></path></g><g mask="url(#mask-CO9i1RIzAYxxwScE_SieG)" stroke-linecap="round"><g transform="translate(1571 1030) rotate(0 229 0)"><path d="M0 0 C148.86 0, 297.71 0, 458 0 M0 0 C166.96 0, 333.92 0, 458 0" stroke="#1e1e1e" stroke-width="1" fill="none"></path></g><g transform="translate(1571 1030) rotate(0 229 0)"><path d="M434.51 8.55 C442.14 5.77, 449.78 2.99, 458 0 M434.51 8.55 C443.07 5.43, 451.64 2.32, 458 0" stroke="#1e1e1e" stroke-width="1" fill="none"></path></g><g transform="translate(1571 1030) rotate(0 229 0)"><path d="M434.51 -8.55 C442.14 -5.77, 449.78 -2.99, 458 0 M434.51 -8.55 C443.07 -5.43, 451.64 -2.32, 458 0" stroke="#1e1e1e" stroke-width="1" fill="none"></path></g></g><mask id="mask-CO9i1RIzAYxxwScE_SieG"><rect x="0" y="0" fill="#fff" width="2129" height="1130"></rect><rect x="1676.953125" y="1018" fill="#000" width="246.09375" height="24" opacity="1"></rect></mask><g transform="translate(1676.953125 1018) rotate(0 123.046875 12)"><text x="123.046875" y="19.3125" font-family="Cascadia, Segoe UI Emoji" font-size="20px" fill="#1e1e1e" text-anchor="middle" style="white-space: pre;" direction="ltr" dominant-baseline="alphabetic">JettonNotify + amount</text></g><g stroke-linecap="round" transform="translate(1870 110) rotate(0 13.203125 110)"><path d="M6.6 0 C9.93 0, 13.26 0, 19.8 0 C24.21 0, 26.41 2.2, 26.41 6.6 C26.41 49.57, 26.41 92.53, 26.41 213.4 C26.41 217.8, 24.21 220, 19.8 220 C15.8 220, 11.79 220, 6.6 220 C2.2 220, 0 217.8, 0 213.4 C0 160.48, 0 107.56, 0 6.6 C0 2.2, 2.2 0, 6.6 0" stroke="none" stroke-width="0" fill="#d0bfff"></path><path d="M6.6 0 C10.52 0, 14.43 0, 19.8 0 M6.6 0 C10.11 0, 13.61 0, 19.8 0 M19.8 0 C24.21 0, 26.41 2.2, 26.41 6.6 M19.8 0 C24.21 0, 26.41 2.2, 26.41 6.6 M26.41 6.6 C26.41 76.72, 26.41 146.84, 26.41 213.4 M26.41 6.6 C26.41 86.55, 26.41 166.5, 26.41 213.4 M26.41 213.4 C26.41 217.8, 24.21 220, 19.8 220 M26.41 213.4 C26.41 217.8, 24.21 220, 19.8 220 M19.8 220 C17.12 220, 14.44 220, 6.6 220 M19.8 220 C15.05 220, 10.3 220, 6.6 220 M6.6 220 C2.2 220, 0 217.8, 0 213.4 M6.6 220 C2.2 220, 0 217.8, 0 213.4 M0 213.4 C0 135.36, 0 57.32, 0 6.6 M0 213.4 C0 165.06, 0 116.73, 0 6.6 M0 6.6 C0 2.2, 2.2 0, 6.6 0 M0 6.6 C0 2.2, 2.2 0, 6.6 0" stroke="#9c36b5" stroke-width="4" fill="none"></path></g><g stroke-linecap="round" transform="translate(1970 910) rotate(0 10 110)"><path d="M5 0 C7.25 0, 9.51 0, 15 0 C18.33 0, 20 1.67, 20 5 C20 85.76, 20 166.51, 20 215 C20 218.33, 18.33 220, 15 220 C11.35 220, 7.7 220, 5 220 C1.67 220, 0 218.33, 0 215 C0 149.13, 0 83.26, 0 5 C0 1.67, 1.67 0, 5 0" stroke="none" stroke-width="0" fill="#d0bfff"></path><path d="M5 0 C8.82 0, 12.64 0, 15 0 M5 0 C7.07 0, 9.14 0, 15 0 M15 0 C18.33 0, 20 1.67, 20 5 M15 0 C18.33 0, 20 1.67, 20 5 M20 5 C20 50.36, 20 95.72, 20 215 M20 5 C20 76.55, 20 148.1, 20 215 M20 215 C20 218.33, 18.33 220, 15 220 M20 215 C20 218.33, 18.33 220, 15 220 M15 220 C12.82 220, 10.64 220, 5 220 M15 220 C12.55 220, 10.1 220, 5 220 M5 220 C1.67 220, 0 218.33, 0 215 M5 220 C1.67 220, 0 218.33, 0 215 M0 215 C0 153.91, 0 92.82, 0 5 M0 215 C0 172.96, 0 130.91, 0 5 M0 5 C0 1.67, 1.67 0, 5 0 M0 5 C0 1.67, 1.67 0, 5 0" stroke="#9c36b5" stroke-width="4" fill="none"></path></g><g stroke-linecap="round" transform="translate(390 110) rotate(0 10 110)"><path d="M5 0 C7.81 0, 10.61 0, 15 0 C18.33 0, 20 1.67, 20 5 C20 64.63, 20 124.26, 20 215 C20 218.33, 18.33 220, 15 220 C12.68 220, 10.37 220, 5 220 C1.67 220, 0 218.33, 0 215 C0 154.59, 0 94.18, 0 5 C0 1.67, 1.67 0, 5 0" stroke="none" stroke-width="0" fill="#ffec99"></path><path d="M5 0 C8.81 0, 12.63 0, 15 0 M5 0 C7.46 0, 9.93 0, 15 0 M15 0 C18.33 0, 20 1.67, 20 5 M15 0 C18.33 0, 20 1.67, 20 5 M20 5 C20 84.42, 20 163.83, 20 215 M20 5 C20 75.11, 20 145.23, 20 215 M20 215 C20 218.33, 18.33 220, 15 220 M20 215 C20 218.33, 18.33 220, 15 220 M15 220 C11.58 220, 8.15 220, 5 220 M15 220 C12.13 220, 9.26 220, 5 220 M5 220 C1.67 220, 0 218.33, 0 215 M5 220 C1.67 220, 0 218.33, 0 215 M0 215 C0 165.63, 0 116.27, 0 5 M0 215 C0 133.06, 0 51.11, 0 5 M0 5 C0 1.67, 1.67 0, 5 0 M0 5 C0 1.67, 1.67 0, 5 0" stroke="#f08c00" stroke-width="4" fill="none"></path></g><g stroke-linecap="round" transform="translate(630 330) rotate(0 10 110)"><path d="M5 0 C8.44 0, 11.88 0, 15 0 C18.33 0, 20 1.67, 20 5 C20 82.59, 20 160.19, 20 215 C20 218.33, 18.33 220, 15 220 C12.09 220, 9.17 220, 5 220 C1.67 220, 0 218.33, 0 215 C0 157.49, 0 99.98, 0 5 C0 1.67, 1.67 0, 5 0" stroke="none" stroke-width="0" fill="#ffec99"></path><path d="M5 0 C7.34 0, 9.68 0, 15 0 M5 0 C7.19 0, 9.38 0, 15 0 M15 0 C18.33 0, 20 1.67, 20 5 M15 0 C18.33 0, 20 1.67, 20 5 M20 5 C20 74.59, 20 144.17, 20 215 M20 5 C20 70.73, 20 136.46, 20 215 M20 215 C20 218.33, 18.33 220, 15 220 M20 215 C20 218.33, 18.33 220, 15 220 M15 220 C11.57 220, 8.13 220, 5 220 M15 220 C12.88 220, 10.76 220, 5 220 M5 220 C1.67 220, 0 218.33, 0 215 M5 220 C1.67 220, 0 218.33, 0 215 M0 215 C0 157.79, 0 100.59, 0 5 M0 215 C0 160.56, 0 106.13, 0 5 M0 5 C0 1.67, 1.67 0, 5 0 M0 5 C0 1.67, 1.67 0, 5 0" stroke="#f08c00" stroke-width="4" fill="none"></path></g><g stroke-linecap="round" transform="translate(390 710) rotate(0 10 110)"><path d="M5 0 C7.94 0, 10.88 0, 15 0 C18.33 0, 20 1.67, 20 5 C20 50.09, 20 95.17, 20 215 C20 218.33, 18.33 220, 15 220 C12.44 220, 9.88 220, 5 220 C1.67 220, 0 218.33, 0 215 C0 161.57, 0 108.13, 0 5 C0 1.67, 1.67 0, 5 0" stroke="none" stroke-width="0" fill="#ffec99"></path><path d="M5 0 C8.15 0, 11.29 0, 15 0 M5 0 C7.01 0, 9.02 0, 15 0 M15 0 C18.33 0, 20 1.67, 20 5 M15 0 C18.33 0, 20 1.67, 20 5 M20 5 C20 76.84, 20 148.69, 20 215 M20 5 C20 83.49, 20 161.97, 20 215 M20 215 C20 218.33, 18.33 220, 15 220 M20 215 C20 218.33, 18.33 220, 15 220 M15 220 C12.39 220, 9.79 220, 5 220 M15 220 C11.21 220, 7.43 220, 5 220 M5 220 C1.67 220, 0 218.33, 0 215 M5 220 C1.67 220, 0 218.33, 0 215 M0 215 C0 145.92, 0 76.84, 0 5 M0 215 C0 164.63, 0 114.25, 0 5 M0 5 C0 1.67, 1.67 0, 5 0 M0 5 C0 1.67, 1.67 0, 5 0" stroke="#f08c00" stroke-width="4" fill="none"></path></g><g stroke-linecap="round" transform="translate(590 930) rotate(0 10 110)"><path d="M5 0 C8.34 0, 11.68 0, 15 0 C18.33 0, 20 1.67, 20 5 C20 86.67, 20 168.33, 20 215 C20 218.33, 18.33 220, 15 220 C11.31 220, 7.61 220, 5 220 C1.67 220, 0 218.33, 0 215 C0 171.03, 0 127.07, 0 5 C0 1.67, 1.67 0, 5 0" stroke="none" stroke-width="0" fill="#ffec99"></path><path d="M5 0 C7.41 0, 9.82 0, 15 0 M5 0 C7.94 0, 10.88 0, 15 0 M15 0 C18.33 0, 20 1.67, 20 5 M15 0 C18.33 0, 20 1.67, 20 5 M20 5 C20 74.01, 20 143.02, 20 215 M20 5 C20 58.81, 20 112.61, 20 215 M20 215 C20 218.33, 18.33 220, 15 220 M20 215 C20 218.33, 18.33 220, 15 220 M15 220 C11.58 220, 8.16 220, 5 220 M15 220 C12.66 220, 10.32 220, 5 220 M5 220 C1.67 220, 0 218.33, 0 215 M5 220 C1.67 220, 0 218.33, 0 215 M0 215 C0 154.04, 0 93.08, 0 5 M0 215 C0 166.59, 0 118.18, 0 5 M0 5 C0 1.67, 1.67 0, 5 0 M0 5 C0 1.67, 1.67 0, 5 0" stroke="#f08c00" stroke-width="4" fill="none"></path></g><g stroke-linecap="round" transform="translate(30 1610) rotate(0 10 110)"><path d="M5 0 C8.38 0, 11.76 0, 15 0 C18.33 0, 20 1.67, 20 5 C20 65.2, 20 125.39, 20 215 C20 218.33, 18.33 220, 15 220 C11.87 220, 8.74 220, 5 220 C1.67 220, 0 218.33, 0 215 C0 152.09, 0 89.18, 0 5 C0 1.67, 1.67 0, 5 0" stroke="none" stroke-width="0" fill="#d0bfff"></path><path d="M5 0 C8.55 0, 12.11 0, 15 0 M5 0 C7.27 0, 9.53 0, 15 0 M15 0 C18.33 0, 20 1.67, 20 5 M15 0 C18.33 0, 20 1.67, 20 5 M20 5 C20 63.48, 20 121.97, 20 215 M20 5 C20 53.32, 20 101.65, 20 215 M20 215 C20 218.33, 18.33 220, 15 220 M20 215 C20 218.33, 18.33 220, 15 220 M15 220 C11.11 220, 7.22 220, 5 220 M15 220 C12.07 220, 9.14 220, 5 220 M5 220 C1.67 220, 0 218.33, 0 215 M5 220 C1.67 220, 0 218.33, 0 215 M0 215 C0 171.03, 0 127.07, 0 5 M0 215 C0 161.04, 0 107.09, 0 5 M0 5 C0 1.67, 1.67 0, 5 0 M0 5 C0 1.67, 1.67 0, 5 0" stroke="#9c36b5" stroke-width="4" fill="none"></path></g><g stroke-linecap="round" transform="translate(30 1330) rotate(0 10 110)"><path d="M5 0 C7.83 0, 10.67 0, 15 0 C18.33 0, 20 1.67, 20 5 C20 75.15, 20 145.3, 20 215 C20 218.33, 18.33 220, 15 220 C11.45 220, 7.91 220, 5 220 C1.67 220, 0 218.33, 0 215 C0 157.76, 0 100.51, 0 5 C0 1.67, 1.67 0, 5 0" stroke="none" stroke-width="0" fill="#ffec99"></path><path d="M5 0 C8.63 0, 12.26 0, 15 0 M5 0 C9 0, 13 0, 15 0 M15 0 C18.33 0, 20 1.67, 20 5 M15 0 C18.33 0, 20 1.67, 20 5 M20 5 C20 75.19, 20 145.37, 20 215 M20 5 C20 66.48, 20 127.95, 20 215 M20 215 C20 218.33, 18.33 220, 15 220 M20 215 C20 218.33, 18.33 220, 15 220 M15 220 C11.39 220, 7.78 220, 5 220 M15 220 C11.94 220, 8.88 220, 5 220 M5 220 C1.67 220, 0 218.33, 0 215 M5 220 C1.67 220, 0 218.33, 0 215 M0 215 C0 134.22, 0 53.43, 0 5 M0 215 C0 149.6, 0 84.2, 0 5 M0 5 C0 1.67, 1.67 0, 5 0 M0 5 C0 1.67, 1.67 0, 5 0" stroke="#f08c00" stroke-width="4" fill="none"></path></g><g transform="translate(90 1670) rotate(0 566.015625 33.59999999999991)"><text x="0" y="27.0375" font-family="Cascadia, Segoe UI Emoji" font-size="28px" fill="#1e1e1e" text-anchor="start" style="white-space: pre;" direction="ltr" dominant-baseline="alphabetic">- on JettonNotify messages:</text><text x="0" y="60.6375" font-family="Cascadia, Segoe UI Emoji" font-size="28px" fill="#1e1e1e" text-anchor="start" style="white-space: pre;" direction="ltr" dominant-baseline="alphabetic">   1. execute SECOND chunk of the swap (from effect saved in storage)</text></g><g transform="translate(90 1390) rotate(0 541.40625 50.39999999999998)"><text x="0" y="27.0375" font-family="Cascadia, Segoe UI Emoji" font-size="28px" fill="#1e1e1e" text-anchor="start" style="white-space: pre;" direction="ltr" dominant-baseline="alphabetic">- on messages from owner:</text><text x="0" y="60.6375" font-family="Cascadia, Segoe UI Emoji" font-size="28px" fill="#1e1e1e" text-anchor="start" style="white-space: pre;" direction="ltr" dominant-baseline="alphabetic">   1. save jetton_sender_address_to_listen &amp; jetton_receive_effect</text><text x="0" y="94.23750000000001" font-family="Cascadia, Segoe UI Emoji" font-size="28px" fill="#1e1e1e" text-anchor="start" style="white-space: pre;" direction="ltr" dominant-baseline="alphabetic">   2. execute FIRST chunk of the swap </text></g><g transform="translate(10 1210) rotate(0 147.65625 21.600000000000023)"><text x="0" y="34.762499999999996" font-family="Cascadia, Segoe UI Emoji" font-size="36px" fill="#1e1e1e" text-anchor="start" style="white-space: pre;" direction="ltr" dominant-baseline="alphabetic">rainbow_wallet</text></g></svg>